<?xml version="1.0" encoding="utf-8" standalone="no"?>
<!DOCTYPE svg PUBLIC "-//W3C//DTD SVG 1.1//EN"
  "http://www.w3.org/Graphics/SVG/1.1/DTD/svg11.dtd">
<svg height="349.2pt" version="1.1" viewBox="0 0 690.48 349.2" width="690.48pt" xmlns="http://www.w3.org/2000/svg" xmlns:xlink="http://www.w3.org/1999/xlink">
 <metadata>
  <rdf:RDF xmlns:cc="http://creativecommons.org/ns#" xmlns:dc="http://purl.org/dc/elements/1.1/" xmlns:rdf="http://www.w3.org/1999/02/22-rdf-syntax-ns#">
   <cc:Work>
    <dc:type rdf:resource="http://purl.org/dc/dcmitype/StillImage"/>
    <dc:date>2023-05-18T11:34:52.562729</dc:date>
    <dc:format>image/svg+xml</dc:format>
    <dc:creator>
     <cc:Agent>
      <dc:title>Matplotlib v3.4.3, https://matplotlib.org/</dc:title>
     </cc:Agent>
    </dc:creator>
   </cc:Work>
  </rdf:RDF>
 </metadata>
 <defs>
  <style type="text/css">*{stroke-linecap:butt;stroke-linejoin:round;}</style>
 </defs>
 <g id="figure_1">
  <g id="patch_1">
   <path d="M 0 349.2 
L 690.48 349.2 
L 690.48 0 
L 0 0 
z
" style="fill:#ffffff;"/>
  </g>
  <g id="axes_1">
   <g id="patch_2">
    <path d="M 86.31 310.788 
L 621.432 310.788 
L 621.432 41.904 
L 86.31 41.904 
z
" style="fill:#ffffff;"/>
   </g>
   <g id="matplotlib.axis_1">
    <g id="xtick_1">
     <g id="line2d_1">
      <path clip-path="url(#pa67ba2ebea)" d="M 86.31 310.788 
L 86.31 41.904 
" style="fill:none;stroke:#b0b0b0;stroke-linecap:square;stroke-width:0.8;"/>
     </g>
     <g id="line2d_2">
      <defs>
       <path d="M 0 0 
L 0 3.5 
" id="m5d1703977a" style="stroke:#000000;stroke-width:0.8;"/>
      </defs>
      <g>
       <use style="stroke:#000000;stroke-width:0.8;" x="86.31" xlink:href="#m5d1703977a" y="310.788"/>
      </g>
     </g>
     <g id="text_1">
      <!-- 0 -->
      <g transform="translate(83.12875 325.386437)scale(0.1 -0.1)">
       <defs>
        <path d="M 2034 4250 
Q 1547 4250 1301 3770 
Q 1056 3291 1056 2328 
Q 1056 1369 1301 889 
Q 1547 409 2034 409 
Q 2525 409 2770 889 
Q 3016 1369 3016 2328 
Q 3016 3291 2770 3770 
Q 2525 4250 2034 4250 
z
M 2034 4750 
Q 2819 4750 3233 4129 
Q 3647 3509 3647 2328 
Q 3647 1150 3233 529 
Q 2819 -91 2034 -91 
Q 1250 -91 836 529 
Q 422 1150 422 2328 
Q 422 3509 836 4129 
Q 1250 4750 2034 4750 
z
" id="DejaVuSans-30" transform="scale(0.015625)"/>
       </defs>
       <use xlink:href="#DejaVuSans-30"/>
      </g>
     </g>
    </g>
    <g id="xtick_2">
     <g id="line2d_3">
      <path clip-path="url(#pa67ba2ebea)" d="M 127.473231 310.788 
L 127.473231 41.904 
" style="fill:none;stroke:#b0b0b0;stroke-linecap:square;stroke-width:0.8;"/>
     </g>
     <g id="line2d_4">
      <g>
       <use style="stroke:#000000;stroke-width:0.8;" x="127.473231" xlink:href="#m5d1703977a" y="310.788"/>
      </g>
     </g>
     <g id="text_2">
      <!-- 10 -->
      <g transform="translate(121.110731 325.386437)scale(0.1 -0.1)">
       <defs>
        <path d="M 794 531 
L 1825 531 
L 1825 4091 
L 703 3866 
L 703 4441 
L 1819 4666 
L 2450 4666 
L 2450 531 
L 3481 531 
L 3481 0 
L 794 0 
L 794 531 
z
" id="DejaVuSans-31" transform="scale(0.015625)"/>
       </defs>
       <use xlink:href="#DejaVuSans-31"/>
       <use x="63.623047" xlink:href="#DejaVuSans-30"/>
      </g>
     </g>
    </g>
    <g id="xtick_3">
     <g id="line2d_5">
      <path clip-path="url(#pa67ba2ebea)" d="M 168.636462 310.788 
L 168.636462 41.904 
" style="fill:none;stroke:#b0b0b0;stroke-linecap:square;stroke-width:0.8;"/>
     </g>
     <g id="line2d_6">
      <g>
       <use style="stroke:#000000;stroke-width:0.8;" x="168.636462" xlink:href="#m5d1703977a" y="310.788"/>
      </g>
     </g>
     <g id="text_3">
      <!-- 20 -->
      <g transform="translate(162.273962 325.386437)scale(0.1 -0.1)">
       <defs>
        <path d="M 1228 531 
L 3431 531 
L 3431 0 
L 469 0 
L 469 531 
Q 828 903 1448 1529 
Q 2069 2156 2228 2338 
Q 2531 2678 2651 2914 
Q 2772 3150 2772 3378 
Q 2772 3750 2511 3984 
Q 2250 4219 1831 4219 
Q 1534 4219 1204 4116 
Q 875 4013 500 3803 
L 500 4441 
Q 881 4594 1212 4672 
Q 1544 4750 1819 4750 
Q 2544 4750 2975 4387 
Q 3406 4025 3406 3419 
Q 3406 3131 3298 2873 
Q 3191 2616 2906 2266 
Q 2828 2175 2409 1742 
Q 1991 1309 1228 531 
z
" id="DejaVuSans-32" transform="scale(0.015625)"/>
       </defs>
       <use xlink:href="#DejaVuSans-32"/>
       <use x="63.623047" xlink:href="#DejaVuSans-30"/>
      </g>
     </g>
    </g>
    <g id="xtick_4">
     <g id="line2d_7">
      <path clip-path="url(#pa67ba2ebea)" d="M 209.799692 310.788 
L 209.799692 41.904 
" style="fill:none;stroke:#b0b0b0;stroke-linecap:square;stroke-width:0.8;"/>
     </g>
     <g id="line2d_8">
      <g>
       <use style="stroke:#000000;stroke-width:0.8;" x="209.799692" xlink:href="#m5d1703977a" y="310.788"/>
      </g>
     </g>
     <g id="text_4">
      <!-- 30 -->
      <g transform="translate(203.437192 325.386437)scale(0.1 -0.1)">
       <defs>
        <path d="M 2597 2516 
Q 3050 2419 3304 2112 
Q 3559 1806 3559 1356 
Q 3559 666 3084 287 
Q 2609 -91 1734 -91 
Q 1441 -91 1130 -33 
Q 819 25 488 141 
L 488 750 
Q 750 597 1062 519 
Q 1375 441 1716 441 
Q 2309 441 2620 675 
Q 2931 909 2931 1356 
Q 2931 1769 2642 2001 
Q 2353 2234 1838 2234 
L 1294 2234 
L 1294 2753 
L 1863 2753 
Q 2328 2753 2575 2939 
Q 2822 3125 2822 3475 
Q 2822 3834 2567 4026 
Q 2313 4219 1838 4219 
Q 1578 4219 1281 4162 
Q 984 4106 628 3988 
L 628 4550 
Q 988 4650 1302 4700 
Q 1616 4750 1894 4750 
Q 2613 4750 3031 4423 
Q 3450 4097 3450 3541 
Q 3450 3153 3228 2886 
Q 3006 2619 2597 2516 
z
" id="DejaVuSans-33" transform="scale(0.015625)"/>
       </defs>
       <use xlink:href="#DejaVuSans-33"/>
       <use x="63.623047" xlink:href="#DejaVuSans-30"/>
      </g>
     </g>
    </g>
    <g id="xtick_5">
     <g id="line2d_9">
      <path clip-path="url(#pa67ba2ebea)" d="M 250.962923 310.788 
L 250.962923 41.904 
" style="fill:none;stroke:#b0b0b0;stroke-linecap:square;stroke-width:0.8;"/>
     </g>
     <g id="line2d_10">
      <g>
       <use style="stroke:#000000;stroke-width:0.8;" x="250.962923" xlink:href="#m5d1703977a" y="310.788"/>
      </g>
     </g>
     <g id="text_5">
      <!-- 40 -->
      <g transform="translate(244.600423 325.386437)scale(0.1 -0.1)">
       <defs>
        <path d="M 2419 4116 
L 825 1625 
L 2419 1625 
L 2419 4116 
z
M 2253 4666 
L 3047 4666 
L 3047 1625 
L 3713 1625 
L 3713 1100 
L 3047 1100 
L 3047 0 
L 2419 0 
L 2419 1100 
L 313 1100 
L 313 1709 
L 2253 4666 
z
" id="DejaVuSans-34" transform="scale(0.015625)"/>
       </defs>
       <use xlink:href="#DejaVuSans-34"/>
       <use x="63.623047" xlink:href="#DejaVuSans-30"/>
      </g>
     </g>
    </g>
    <g id="xtick_6">
     <g id="line2d_11">
      <path clip-path="url(#pa67ba2ebea)" d="M 292.126154 310.788 
L 292.126154 41.904 
" style="fill:none;stroke:#b0b0b0;stroke-linecap:square;stroke-width:0.8;"/>
     </g>
     <g id="line2d_12">
      <g>
       <use style="stroke:#000000;stroke-width:0.8;" x="292.126154" xlink:href="#m5d1703977a" y="310.788"/>
      </g>
     </g>
     <g id="text_6">
      <!-- 50 -->
      <g transform="translate(285.763654 325.386437)scale(0.1 -0.1)">
       <defs>
        <path d="M 691 4666 
L 3169 4666 
L 3169 4134 
L 1269 4134 
L 1269 2991 
Q 1406 3038 1543 3061 
Q 1681 3084 1819 3084 
Q 2600 3084 3056 2656 
Q 3513 2228 3513 1497 
Q 3513 744 3044 326 
Q 2575 -91 1722 -91 
Q 1428 -91 1123 -41 
Q 819 9 494 109 
L 494 744 
Q 775 591 1075 516 
Q 1375 441 1709 441 
Q 2250 441 2565 725 
Q 2881 1009 2881 1497 
Q 2881 1984 2565 2268 
Q 2250 2553 1709 2553 
Q 1456 2553 1204 2497 
Q 953 2441 691 2322 
L 691 4666 
z
" id="DejaVuSans-35" transform="scale(0.015625)"/>
       </defs>
       <use xlink:href="#DejaVuSans-35"/>
       <use x="63.623047" xlink:href="#DejaVuSans-30"/>
      </g>
     </g>
    </g>
    <g id="xtick_7">
     <g id="line2d_13">
      <path clip-path="url(#pa67ba2ebea)" d="M 333.289385 310.788 
L 333.289385 41.904 
" style="fill:none;stroke:#b0b0b0;stroke-linecap:square;stroke-width:0.8;"/>
     </g>
     <g id="line2d_14">
      <g>
       <use style="stroke:#000000;stroke-width:0.8;" x="333.289385" xlink:href="#m5d1703977a" y="310.788"/>
      </g>
     </g>
     <g id="text_7">
      <!-- 60 -->
      <g transform="translate(326.926885 325.386437)scale(0.1 -0.1)">
       <defs>
        <path d="M 2113 2584 
Q 1688 2584 1439 2293 
Q 1191 2003 1191 1497 
Q 1191 994 1439 701 
Q 1688 409 2113 409 
Q 2538 409 2786 701 
Q 3034 994 3034 1497 
Q 3034 2003 2786 2293 
Q 2538 2584 2113 2584 
z
M 3366 4563 
L 3366 3988 
Q 3128 4100 2886 4159 
Q 2644 4219 2406 4219 
Q 1781 4219 1451 3797 
Q 1122 3375 1075 2522 
Q 1259 2794 1537 2939 
Q 1816 3084 2150 3084 
Q 2853 3084 3261 2657 
Q 3669 2231 3669 1497 
Q 3669 778 3244 343 
Q 2819 -91 2113 -91 
Q 1303 -91 875 529 
Q 447 1150 447 2328 
Q 447 3434 972 4092 
Q 1497 4750 2381 4750 
Q 2619 4750 2861 4703 
Q 3103 4656 3366 4563 
z
" id="DejaVuSans-36" transform="scale(0.015625)"/>
       </defs>
       <use xlink:href="#DejaVuSans-36"/>
       <use x="63.623047" xlink:href="#DejaVuSans-30"/>
      </g>
     </g>
    </g>
    <g id="xtick_8">
     <g id="line2d_15">
      <path clip-path="url(#pa67ba2ebea)" d="M 374.452615 310.788 
L 374.452615 41.904 
" style="fill:none;stroke:#b0b0b0;stroke-linecap:square;stroke-width:0.8;"/>
     </g>
     <g id="line2d_16">
      <g>
       <use style="stroke:#000000;stroke-width:0.8;" x="374.452615" xlink:href="#m5d1703977a" y="310.788"/>
      </g>
     </g>
     <g id="text_8">
      <!-- 70 -->
      <g transform="translate(368.090115 325.386437)scale(0.1 -0.1)">
       <defs>
        <path d="M 525 4666 
L 3525 4666 
L 3525 4397 
L 1831 0 
L 1172 0 
L 2766 4134 
L 525 4134 
L 525 4666 
z
" id="DejaVuSans-37" transform="scale(0.015625)"/>
       </defs>
       <use xlink:href="#DejaVuSans-37"/>
       <use x="63.623047" xlink:href="#DejaVuSans-30"/>
      </g>
     </g>
    </g>
    <g id="xtick_9">
     <g id="line2d_17">
      <path clip-path="url(#pa67ba2ebea)" d="M 415.615846 310.788 
L 415.615846 41.904 
" style="fill:none;stroke:#b0b0b0;stroke-linecap:square;stroke-width:0.8;"/>
     </g>
     <g id="line2d_18">
      <g>
       <use style="stroke:#000000;stroke-width:0.8;" x="415.615846" xlink:href="#m5d1703977a" y="310.788"/>
      </g>
     </g>
     <g id="text_9">
      <!-- 80 -->
      <g transform="translate(409.253346 325.386437)scale(0.1 -0.1)">
       <defs>
        <path d="M 2034 2216 
Q 1584 2216 1326 1975 
Q 1069 1734 1069 1313 
Q 1069 891 1326 650 
Q 1584 409 2034 409 
Q 2484 409 2743 651 
Q 3003 894 3003 1313 
Q 3003 1734 2745 1975 
Q 2488 2216 2034 2216 
z
M 1403 2484 
Q 997 2584 770 2862 
Q 544 3141 544 3541 
Q 544 4100 942 4425 
Q 1341 4750 2034 4750 
Q 2731 4750 3128 4425 
Q 3525 4100 3525 3541 
Q 3525 3141 3298 2862 
Q 3072 2584 2669 2484 
Q 3125 2378 3379 2068 
Q 3634 1759 3634 1313 
Q 3634 634 3220 271 
Q 2806 -91 2034 -91 
Q 1263 -91 848 271 
Q 434 634 434 1313 
Q 434 1759 690 2068 
Q 947 2378 1403 2484 
z
M 1172 3481 
Q 1172 3119 1398 2916 
Q 1625 2713 2034 2713 
Q 2441 2713 2670 2916 
Q 2900 3119 2900 3481 
Q 2900 3844 2670 4047 
Q 2441 4250 2034 4250 
Q 1625 4250 1398 4047 
Q 1172 3844 1172 3481 
z
" id="DejaVuSans-38" transform="scale(0.015625)"/>
       </defs>
       <use xlink:href="#DejaVuSans-38"/>
       <use x="63.623047" xlink:href="#DejaVuSans-30"/>
      </g>
     </g>
    </g>
    <g id="xtick_10">
     <g id="line2d_19">
      <path clip-path="url(#pa67ba2ebea)" d="M 456.779077 310.788 
L 456.779077 41.904 
" style="fill:none;stroke:#b0b0b0;stroke-linecap:square;stroke-width:0.8;"/>
     </g>
     <g id="line2d_20">
      <g>
       <use style="stroke:#000000;stroke-width:0.8;" x="456.779077" xlink:href="#m5d1703977a" y="310.788"/>
      </g>
     </g>
     <g id="text_10">
      <!-- 90 -->
      <g transform="translate(450.416577 325.386437)scale(0.1 -0.1)">
       <defs>
        <path d="M 703 97 
L 703 672 
Q 941 559 1184 500 
Q 1428 441 1663 441 
Q 2288 441 2617 861 
Q 2947 1281 2994 2138 
Q 2813 1869 2534 1725 
Q 2256 1581 1919 1581 
Q 1219 1581 811 2004 
Q 403 2428 403 3163 
Q 403 3881 828 4315 
Q 1253 4750 1959 4750 
Q 2769 4750 3195 4129 
Q 3622 3509 3622 2328 
Q 3622 1225 3098 567 
Q 2575 -91 1691 -91 
Q 1453 -91 1209 -44 
Q 966 3 703 97 
z
M 1959 2075 
Q 2384 2075 2632 2365 
Q 2881 2656 2881 3163 
Q 2881 3666 2632 3958 
Q 2384 4250 1959 4250 
Q 1534 4250 1286 3958 
Q 1038 3666 1038 3163 
Q 1038 2656 1286 2365 
Q 1534 2075 1959 2075 
z
" id="DejaVuSans-39" transform="scale(0.015625)"/>
       </defs>
       <use xlink:href="#DejaVuSans-39"/>
       <use x="63.623047" xlink:href="#DejaVuSans-30"/>
      </g>
     </g>
    </g>
    <g id="xtick_11">
     <g id="line2d_21">
      <path clip-path="url(#pa67ba2ebea)" d="M 497.942308 310.788 
L 497.942308 41.904 
" style="fill:none;stroke:#b0b0b0;stroke-linecap:square;stroke-width:0.8;"/>
     </g>
     <g id="line2d_22">
      <g>
       <use style="stroke:#000000;stroke-width:0.8;" x="497.942308" xlink:href="#m5d1703977a" y="310.788"/>
      </g>
     </g>
     <g id="text_11">
      <!-- 100 -->
      <g transform="translate(488.398558 325.386437)scale(0.1 -0.1)">
       <use xlink:href="#DejaVuSans-31"/>
       <use x="63.623047" xlink:href="#DejaVuSans-30"/>
       <use x="127.246094" xlink:href="#DejaVuSans-30"/>
      </g>
     </g>
    </g>
    <g id="xtick_12">
     <g id="line2d_23">
      <path clip-path="url(#pa67ba2ebea)" d="M 539.105538 310.788 
L 539.105538 41.904 
" style="fill:none;stroke:#b0b0b0;stroke-linecap:square;stroke-width:0.8;"/>
     </g>
     <g id="line2d_24">
      <g>
       <use style="stroke:#000000;stroke-width:0.8;" x="539.105538" xlink:href="#m5d1703977a" y="310.788"/>
      </g>
     </g>
     <g id="text_12">
      <!-- 110 -->
      <g transform="translate(529.561788 325.386437)scale(0.1 -0.1)">
       <use xlink:href="#DejaVuSans-31"/>
       <use x="63.623047" xlink:href="#DejaVuSans-31"/>
       <use x="127.246094" xlink:href="#DejaVuSans-30"/>
      </g>
     </g>
    </g>
    <g id="xtick_13">
     <g id="line2d_25">
      <path clip-path="url(#pa67ba2ebea)" d="M 580.268769 310.788 
L 580.268769 41.904 
" style="fill:none;stroke:#b0b0b0;stroke-linecap:square;stroke-width:0.8;"/>
     </g>
     <g id="line2d_26">
      <g>
       <use style="stroke:#000000;stroke-width:0.8;" x="580.268769" xlink:href="#m5d1703977a" y="310.788"/>
      </g>
     </g>
     <g id="text_13">
      <!-- 120 -->
      <g transform="translate(570.725019 325.386437)scale(0.1 -0.1)">
       <use xlink:href="#DejaVuSans-31"/>
       <use x="63.623047" xlink:href="#DejaVuSans-32"/>
       <use x="127.246094" xlink:href="#DejaVuSans-30"/>
      </g>
     </g>
    </g>
    <g id="xtick_14">
     <g id="line2d_27">
      <path clip-path="url(#pa67ba2ebea)" d="M 621.432 310.788 
L 621.432 41.904 
" style="fill:none;stroke:#b0b0b0;stroke-linecap:square;stroke-width:0.8;"/>
     </g>
     <g id="line2d_28">
      <g>
       <use style="stroke:#000000;stroke-width:0.8;" x="621.432" xlink:href="#m5d1703977a" y="310.788"/>
      </g>
     </g>
     <g id="text_14">
      <!-- 130 -->
      <g transform="translate(611.88825 325.386437)scale(0.1 -0.1)">
       <use xlink:href="#DejaVuSans-31"/>
       <use x="63.623047" xlink:href="#DejaVuSans-33"/>
       <use x="127.246094" xlink:href="#DejaVuSans-30"/>
      </g>
     </g>
    </g>
    <g id="xtick_15">
     <g id="line2d_29">
      <path clip-path="url(#pa67ba2ebea)" d="M 94.542646 310.788 
L 94.542646 41.904 
" style="fill:none;stroke:#b0b0b0;stroke-dasharray:2.96,1.28;stroke-dashoffset:0;stroke-width:0.8;"/>
     </g>
     <g id="line2d_30">
      <defs>
       <path d="M 0 0 
L 0 2 
" id="m339665220a" style="stroke:#000000;stroke-width:0.6;"/>
      </defs>
      <g>
       <use style="stroke:#000000;stroke-width:0.6;" x="94.542646" xlink:href="#m339665220a" y="310.788"/>
      </g>
     </g>
    </g>
    <g id="xtick_16">
     <g id="line2d_31">
      <path clip-path="url(#pa67ba2ebea)" d="M 102.775292 310.788 
L 102.775292 41.904 
" style="fill:none;stroke:#b0b0b0;stroke-dasharray:2.96,1.28;stroke-dashoffset:0;stroke-width:0.8;"/>
     </g>
     <g id="line2d_32">
      <g>
       <use style="stroke:#000000;stroke-width:0.6;" x="102.775292" xlink:href="#m339665220a" y="310.788"/>
      </g>
     </g>
    </g>
    <g id="xtick_17">
     <g id="line2d_33">
      <path clip-path="url(#pa67ba2ebea)" d="M 111.007938 310.788 
L 111.007938 41.904 
" style="fill:none;stroke:#b0b0b0;stroke-dasharray:2.96,1.28;stroke-dashoffset:0;stroke-width:0.8;"/>
     </g>
     <g id="line2d_34">
      <g>
       <use style="stroke:#000000;stroke-width:0.6;" x="111.007938" xlink:href="#m339665220a" y="310.788"/>
      </g>
     </g>
    </g>
    <g id="xtick_18">
     <g id="line2d_35">
      <path clip-path="url(#pa67ba2ebea)" d="M 119.240585 310.788 
L 119.240585 41.904 
" style="fill:none;stroke:#b0b0b0;stroke-dasharray:2.96,1.28;stroke-dashoffset:0;stroke-width:0.8;"/>
     </g>
     <g id="line2d_36">
      <g>
       <use style="stroke:#000000;stroke-width:0.6;" x="119.240585" xlink:href="#m339665220a" y="310.788"/>
      </g>
     </g>
    </g>
    <g id="xtick_19">
     <g id="line2d_37">
      <path clip-path="url(#pa67ba2ebea)" d="M 135.705877 310.788 
L 135.705877 41.904 
" style="fill:none;stroke:#b0b0b0;stroke-dasharray:2.96,1.28;stroke-dashoffset:0;stroke-width:0.8;"/>
     </g>
     <g id="line2d_38">
      <g>
       <use style="stroke:#000000;stroke-width:0.6;" x="135.705877" xlink:href="#m339665220a" y="310.788"/>
      </g>
     </g>
    </g>
    <g id="xtick_20">
     <g id="line2d_39">
      <path clip-path="url(#pa67ba2ebea)" d="M 143.938523 310.788 
L 143.938523 41.904 
" style="fill:none;stroke:#b0b0b0;stroke-dasharray:2.96,1.28;stroke-dashoffset:0;stroke-width:0.8;"/>
     </g>
     <g id="line2d_40">
      <g>
       <use style="stroke:#000000;stroke-width:0.6;" x="143.938523" xlink:href="#m339665220a" y="310.788"/>
      </g>
     </g>
    </g>
    <g id="xtick_21">
     <g id="line2d_41">
      <path clip-path="url(#pa67ba2ebea)" d="M 152.171169 310.788 
L 152.171169 41.904 
" style="fill:none;stroke:#b0b0b0;stroke-dasharray:2.96,1.28;stroke-dashoffset:0;stroke-width:0.8;"/>
     </g>
     <g id="line2d_42">
      <g>
       <use style="stroke:#000000;stroke-width:0.6;" x="152.171169" xlink:href="#m339665220a" y="310.788"/>
      </g>
     </g>
    </g>
    <g id="xtick_22">
     <g id="line2d_43">
      <path clip-path="url(#pa67ba2ebea)" d="M 160.403815 310.788 
L 160.403815 41.904 
" style="fill:none;stroke:#b0b0b0;stroke-dasharray:2.96,1.28;stroke-dashoffset:0;stroke-width:0.8;"/>
     </g>
     <g id="line2d_44">
      <g>
       <use style="stroke:#000000;stroke-width:0.6;" x="160.403815" xlink:href="#m339665220a" y="310.788"/>
      </g>
     </g>
    </g>
    <g id="xtick_23">
     <g id="line2d_45">
      <path clip-path="url(#pa67ba2ebea)" d="M 176.869108 310.788 
L 176.869108 41.904 
" style="fill:none;stroke:#b0b0b0;stroke-dasharray:2.96,1.28;stroke-dashoffset:0;stroke-width:0.8;"/>
     </g>
     <g id="line2d_46">
      <g>
       <use style="stroke:#000000;stroke-width:0.6;" x="176.869108" xlink:href="#m339665220a" y="310.788"/>
      </g>
     </g>
    </g>
    <g id="xtick_24">
     <g id="line2d_47">
      <path clip-path="url(#pa67ba2ebea)" d="M 185.101754 310.788 
L 185.101754 41.904 
" style="fill:none;stroke:#b0b0b0;stroke-dasharray:2.96,1.28;stroke-dashoffset:0;stroke-width:0.8;"/>
     </g>
     <g id="line2d_48">
      <g>
       <use style="stroke:#000000;stroke-width:0.6;" x="185.101754" xlink:href="#m339665220a" y="310.788"/>
      </g>
     </g>
    </g>
    <g id="xtick_25">
     <g id="line2d_49">
      <path clip-path="url(#pa67ba2ebea)" d="M 193.3344 310.788 
L 193.3344 41.904 
" style="fill:none;stroke:#b0b0b0;stroke-dasharray:2.96,1.28;stroke-dashoffset:0;stroke-width:0.8;"/>
     </g>
     <g id="line2d_50">
      <g>
       <use style="stroke:#000000;stroke-width:0.6;" x="193.3344" xlink:href="#m339665220a" y="310.788"/>
      </g>
     </g>
    </g>
    <g id="xtick_26">
     <g id="line2d_51">
      <path clip-path="url(#pa67ba2ebea)" d="M 201.567046 310.788 
L 201.567046 41.904 
" style="fill:none;stroke:#b0b0b0;stroke-dasharray:2.96,1.28;stroke-dashoffset:0;stroke-width:0.8;"/>
     </g>
     <g id="line2d_52">
      <g>
       <use style="stroke:#000000;stroke-width:0.6;" x="201.567046" xlink:href="#m339665220a" y="310.788"/>
      </g>
     </g>
    </g>
    <g id="xtick_27">
     <g id="line2d_53">
      <path clip-path="url(#pa67ba2ebea)" d="M 218.032338 310.788 
L 218.032338 41.904 
" style="fill:none;stroke:#b0b0b0;stroke-dasharray:2.96,1.28;stroke-dashoffset:0;stroke-width:0.8;"/>
     </g>
     <g id="line2d_54">
      <g>
       <use style="stroke:#000000;stroke-width:0.6;" x="218.032338" xlink:href="#m339665220a" y="310.788"/>
      </g>
     </g>
    </g>
    <g id="xtick_28">
     <g id="line2d_55">
      <path clip-path="url(#pa67ba2ebea)" d="M 226.264985 310.788 
L 226.264985 41.904 
" style="fill:none;stroke:#b0b0b0;stroke-dasharray:2.96,1.28;stroke-dashoffset:0;stroke-width:0.8;"/>
     </g>
     <g id="line2d_56">
      <g>
       <use style="stroke:#000000;stroke-width:0.6;" x="226.264985" xlink:href="#m339665220a" y="310.788"/>
      </g>
     </g>
    </g>
    <g id="xtick_29">
     <g id="line2d_57">
      <path clip-path="url(#pa67ba2ebea)" d="M 234.497631 310.788 
L 234.497631 41.904 
" style="fill:none;stroke:#b0b0b0;stroke-dasharray:2.96,1.28;stroke-dashoffset:0;stroke-width:0.8;"/>
     </g>
     <g id="line2d_58">
      <g>
       <use style="stroke:#000000;stroke-width:0.6;" x="234.497631" xlink:href="#m339665220a" y="310.788"/>
      </g>
     </g>
    </g>
    <g id="xtick_30">
     <g id="line2d_59">
      <path clip-path="url(#pa67ba2ebea)" d="M 242.730277 310.788 
L 242.730277 41.904 
" style="fill:none;stroke:#b0b0b0;stroke-dasharray:2.96,1.28;stroke-dashoffset:0;stroke-width:0.8;"/>
     </g>
     <g id="line2d_60">
      <g>
       <use style="stroke:#000000;stroke-width:0.6;" x="242.730277" xlink:href="#m339665220a" y="310.788"/>
      </g>
     </g>
    </g>
    <g id="xtick_31">
     <g id="line2d_61">
      <path clip-path="url(#pa67ba2ebea)" d="M 259.195569 310.788 
L 259.195569 41.904 
" style="fill:none;stroke:#b0b0b0;stroke-dasharray:2.96,1.28;stroke-dashoffset:0;stroke-width:0.8;"/>
     </g>
     <g id="line2d_62">
      <g>
       <use style="stroke:#000000;stroke-width:0.6;" x="259.195569" xlink:href="#m339665220a" y="310.788"/>
      </g>
     </g>
    </g>
    <g id="xtick_32">
     <g id="line2d_63">
      <path clip-path="url(#pa67ba2ebea)" d="M 267.428215 310.788 
L 267.428215 41.904 
" style="fill:none;stroke:#b0b0b0;stroke-dasharray:2.96,1.28;stroke-dashoffset:0;stroke-width:0.8;"/>
     </g>
     <g id="line2d_64">
      <g>
       <use style="stroke:#000000;stroke-width:0.6;" x="267.428215" xlink:href="#m339665220a" y="310.788"/>
      </g>
     </g>
    </g>
    <g id="xtick_33">
     <g id="line2d_65">
      <path clip-path="url(#pa67ba2ebea)" d="M 275.660862 310.788 
L 275.660862 41.904 
" style="fill:none;stroke:#b0b0b0;stroke-dasharray:2.96,1.28;stroke-dashoffset:0;stroke-width:0.8;"/>
     </g>
     <g id="line2d_66">
      <g>
       <use style="stroke:#000000;stroke-width:0.6;" x="275.660862" xlink:href="#m339665220a" y="310.788"/>
      </g>
     </g>
    </g>
    <g id="xtick_34">
     <g id="line2d_67">
      <path clip-path="url(#pa67ba2ebea)" d="M 283.893508 310.788 
L 283.893508 41.904 
" style="fill:none;stroke:#b0b0b0;stroke-dasharray:2.96,1.28;stroke-dashoffset:0;stroke-width:0.8;"/>
     </g>
     <g id="line2d_68">
      <g>
       <use style="stroke:#000000;stroke-width:0.6;" x="283.893508" xlink:href="#m339665220a" y="310.788"/>
      </g>
     </g>
    </g>
    <g id="xtick_35">
     <g id="line2d_69">
      <path clip-path="url(#pa67ba2ebea)" d="M 300.3588 310.788 
L 300.3588 41.904 
" style="fill:none;stroke:#b0b0b0;stroke-dasharray:2.96,1.28;stroke-dashoffset:0;stroke-width:0.8;"/>
     </g>
     <g id="line2d_70">
      <g>
       <use style="stroke:#000000;stroke-width:0.6;" x="300.3588" xlink:href="#m339665220a" y="310.788"/>
      </g>
     </g>
    </g>
    <g id="xtick_36">
     <g id="line2d_71">
      <path clip-path="url(#pa67ba2ebea)" d="M 308.591446 310.788 
L 308.591446 41.904 
" style="fill:none;stroke:#b0b0b0;stroke-dasharray:2.96,1.28;stroke-dashoffset:0;stroke-width:0.8;"/>
     </g>
     <g id="line2d_72">
      <g>
       <use style="stroke:#000000;stroke-width:0.6;" x="308.591446" xlink:href="#m339665220a" y="310.788"/>
      </g>
     </g>
    </g>
    <g id="xtick_37">
     <g id="line2d_73">
      <path clip-path="url(#pa67ba2ebea)" d="M 316.824092 310.788 
L 316.824092 41.904 
" style="fill:none;stroke:#b0b0b0;stroke-dasharray:2.96,1.28;stroke-dashoffset:0;stroke-width:0.8;"/>
     </g>
     <g id="line2d_74">
      <g>
       <use style="stroke:#000000;stroke-width:0.6;" x="316.824092" xlink:href="#m339665220a" y="310.788"/>
      </g>
     </g>
    </g>
    <g id="xtick_38">
     <g id="line2d_75">
      <path clip-path="url(#pa67ba2ebea)" d="M 325.056738 310.788 
L 325.056738 41.904 
" style="fill:none;stroke:#b0b0b0;stroke-dasharray:2.96,1.28;stroke-dashoffset:0;stroke-width:0.8;"/>
     </g>
     <g id="line2d_76">
      <g>
       <use style="stroke:#000000;stroke-width:0.6;" x="325.056738" xlink:href="#m339665220a" y="310.788"/>
      </g>
     </g>
    </g>
    <g id="xtick_39">
     <g id="line2d_77">
      <path clip-path="url(#pa67ba2ebea)" d="M 341.522031 310.788 
L 341.522031 41.904 
" style="fill:none;stroke:#b0b0b0;stroke-dasharray:2.96,1.28;stroke-dashoffset:0;stroke-width:0.8;"/>
     </g>
     <g id="line2d_78">
      <g>
       <use style="stroke:#000000;stroke-width:0.6;" x="341.522031" xlink:href="#m339665220a" y="310.788"/>
      </g>
     </g>
    </g>
    <g id="xtick_40">
     <g id="line2d_79">
      <path clip-path="url(#pa67ba2ebea)" d="M 349.754677 310.788 
L 349.754677 41.904 
" style="fill:none;stroke:#b0b0b0;stroke-dasharray:2.96,1.28;stroke-dashoffset:0;stroke-width:0.8;"/>
     </g>
     <g id="line2d_80">
      <g>
       <use style="stroke:#000000;stroke-width:0.6;" x="349.754677" xlink:href="#m339665220a" y="310.788"/>
      </g>
     </g>
    </g>
    <g id="xtick_41">
     <g id="line2d_81">
      <path clip-path="url(#pa67ba2ebea)" d="M 357.987323 310.788 
L 357.987323 41.904 
" style="fill:none;stroke:#b0b0b0;stroke-dasharray:2.96,1.28;stroke-dashoffset:0;stroke-width:0.8;"/>
     </g>
     <g id="line2d_82">
      <g>
       <use style="stroke:#000000;stroke-width:0.6;" x="357.987323" xlink:href="#m339665220a" y="310.788"/>
      </g>
     </g>
    </g>
    <g id="xtick_42">
     <g id="line2d_83">
      <path clip-path="url(#pa67ba2ebea)" d="M 366.219969 310.788 
L 366.219969 41.904 
" style="fill:none;stroke:#b0b0b0;stroke-dasharray:2.96,1.28;stroke-dashoffset:0;stroke-width:0.8;"/>
     </g>
     <g id="line2d_84">
      <g>
       <use style="stroke:#000000;stroke-width:0.6;" x="366.219969" xlink:href="#m339665220a" y="310.788"/>
      </g>
     </g>
    </g>
    <g id="xtick_43">
     <g id="line2d_85">
      <path clip-path="url(#pa67ba2ebea)" d="M 382.685262 310.788 
L 382.685262 41.904 
" style="fill:none;stroke:#b0b0b0;stroke-dasharray:2.96,1.28;stroke-dashoffset:0;stroke-width:0.8;"/>
     </g>
     <g id="line2d_86">
      <g>
       <use style="stroke:#000000;stroke-width:0.6;" x="382.685262" xlink:href="#m339665220a" y="310.788"/>
      </g>
     </g>
    </g>
    <g id="xtick_44">
     <g id="line2d_87">
      <path clip-path="url(#pa67ba2ebea)" d="M 390.917908 310.788 
L 390.917908 41.904 
" style="fill:none;stroke:#b0b0b0;stroke-dasharray:2.96,1.28;stroke-dashoffset:0;stroke-width:0.8;"/>
     </g>
     <g id="line2d_88">
      <g>
       <use style="stroke:#000000;stroke-width:0.6;" x="390.917908" xlink:href="#m339665220a" y="310.788"/>
      </g>
     </g>
    </g>
    <g id="xtick_45">
     <g id="line2d_89">
      <path clip-path="url(#pa67ba2ebea)" d="M 399.150554 310.788 
L 399.150554 41.904 
" style="fill:none;stroke:#b0b0b0;stroke-dasharray:2.96,1.28;stroke-dashoffset:0;stroke-width:0.8;"/>
     </g>
     <g id="line2d_90">
      <g>
       <use style="stroke:#000000;stroke-width:0.6;" x="399.150554" xlink:href="#m339665220a" y="310.788"/>
      </g>
     </g>
    </g>
    <g id="xtick_46">
     <g id="line2d_91">
      <path clip-path="url(#pa67ba2ebea)" d="M 407.3832 310.788 
L 407.3832 41.904 
" style="fill:none;stroke:#b0b0b0;stroke-dasharray:2.96,1.28;stroke-dashoffset:0;stroke-width:0.8;"/>
     </g>
     <g id="line2d_92">
      <g>
       <use style="stroke:#000000;stroke-width:0.6;" x="407.3832" xlink:href="#m339665220a" y="310.788"/>
      </g>
     </g>
    </g>
    <g id="xtick_47">
     <g id="line2d_93">
      <path clip-path="url(#pa67ba2ebea)" d="M 423.848492 310.788 
L 423.848492 41.904 
" style="fill:none;stroke:#b0b0b0;stroke-dasharray:2.96,1.28;stroke-dashoffset:0;stroke-width:0.8;"/>
     </g>
     <g id="line2d_94">
      <g>
       <use style="stroke:#000000;stroke-width:0.6;" x="423.848492" xlink:href="#m339665220a" y="310.788"/>
      </g>
     </g>
    </g>
    <g id="xtick_48">
     <g id="line2d_95">
      <path clip-path="url(#pa67ba2ebea)" d="M 432.081138 310.788 
L 432.081138 41.904 
" style="fill:none;stroke:#b0b0b0;stroke-dasharray:2.96,1.28;stroke-dashoffset:0;stroke-width:0.8;"/>
     </g>
     <g id="line2d_96">
      <g>
       <use style="stroke:#000000;stroke-width:0.6;" x="432.081138" xlink:href="#m339665220a" y="310.788"/>
      </g>
     </g>
    </g>
    <g id="xtick_49">
     <g id="line2d_97">
      <path clip-path="url(#pa67ba2ebea)" d="M 440.313785 310.788 
L 440.313785 41.904 
" style="fill:none;stroke:#b0b0b0;stroke-dasharray:2.96,1.28;stroke-dashoffset:0;stroke-width:0.8;"/>
     </g>
     <g id="line2d_98">
      <g>
       <use style="stroke:#000000;stroke-width:0.6;" x="440.313785" xlink:href="#m339665220a" y="310.788"/>
      </g>
     </g>
    </g>
    <g id="xtick_50">
     <g id="line2d_99">
      <path clip-path="url(#pa67ba2ebea)" d="M 448.546431 310.788 
L 448.546431 41.904 
" style="fill:none;stroke:#b0b0b0;stroke-dasharray:2.96,1.28;stroke-dashoffset:0;stroke-width:0.8;"/>
     </g>
     <g id="line2d_100">
      <g>
       <use style="stroke:#000000;stroke-width:0.6;" x="448.546431" xlink:href="#m339665220a" y="310.788"/>
      </g>
     </g>
    </g>
    <g id="xtick_51">
     <g id="line2d_101">
      <path clip-path="url(#pa67ba2ebea)" d="M 465.011723 310.788 
L 465.011723 41.904 
" style="fill:none;stroke:#b0b0b0;stroke-dasharray:2.96,1.28;stroke-dashoffset:0;stroke-width:0.8;"/>
     </g>
     <g id="line2d_102">
      <g>
       <use style="stroke:#000000;stroke-width:0.6;" x="465.011723" xlink:href="#m339665220a" y="310.788"/>
      </g>
     </g>
    </g>
    <g id="xtick_52">
     <g id="line2d_103">
      <path clip-path="url(#pa67ba2ebea)" d="M 473.244369 310.788 
L 473.244369 41.904 
" style="fill:none;stroke:#b0b0b0;stroke-dasharray:2.96,1.28;stroke-dashoffset:0;stroke-width:0.8;"/>
     </g>
     <g id="line2d_104">
      <g>
       <use style="stroke:#000000;stroke-width:0.6;" x="473.244369" xlink:href="#m339665220a" y="310.788"/>
      </g>
     </g>
    </g>
    <g id="xtick_53">
     <g id="line2d_105">
      <path clip-path="url(#pa67ba2ebea)" d="M 481.477015 310.788 
L 481.477015 41.904 
" style="fill:none;stroke:#b0b0b0;stroke-dasharray:2.96,1.28;stroke-dashoffset:0;stroke-width:0.8;"/>
     </g>
     <g id="line2d_106">
      <g>
       <use style="stroke:#000000;stroke-width:0.6;" x="481.477015" xlink:href="#m339665220a" y="310.788"/>
      </g>
     </g>
    </g>
    <g id="xtick_54">
     <g id="line2d_107">
      <path clip-path="url(#pa67ba2ebea)" d="M 489.709662 310.788 
L 489.709662 41.904 
" style="fill:none;stroke:#b0b0b0;stroke-dasharray:2.96,1.28;stroke-dashoffset:0;stroke-width:0.8;"/>
     </g>
     <g id="line2d_108">
      <g>
       <use style="stroke:#000000;stroke-width:0.6;" x="489.709662" xlink:href="#m339665220a" y="310.788"/>
      </g>
     </g>
    </g>
    <g id="xtick_55">
     <g id="line2d_109">
      <path clip-path="url(#pa67ba2ebea)" d="M 506.174954 310.788 
L 506.174954 41.904 
" style="fill:none;stroke:#b0b0b0;stroke-dasharray:2.96,1.28;stroke-dashoffset:0;stroke-width:0.8;"/>
     </g>
     <g id="line2d_110">
      <g>
       <use style="stroke:#000000;stroke-width:0.6;" x="506.174954" xlink:href="#m339665220a" y="310.788"/>
      </g>
     </g>
    </g>
    <g id="xtick_56">
     <g id="line2d_111">
      <path clip-path="url(#pa67ba2ebea)" d="M 514.4076 310.788 
L 514.4076 41.904 
" style="fill:none;stroke:#b0b0b0;stroke-dasharray:2.96,1.28;stroke-dashoffset:0;stroke-width:0.8;"/>
     </g>
     <g id="line2d_112">
      <g>
       <use style="stroke:#000000;stroke-width:0.6;" x="514.4076" xlink:href="#m339665220a" y="310.788"/>
      </g>
     </g>
    </g>
    <g id="xtick_57">
     <g id="line2d_113">
      <path clip-path="url(#pa67ba2ebea)" d="M 522.640246 310.788 
L 522.640246 41.904 
" style="fill:none;stroke:#b0b0b0;stroke-dasharray:2.96,1.28;stroke-dashoffset:0;stroke-width:0.8;"/>
     </g>
     <g id="line2d_114">
      <g>
       <use style="stroke:#000000;stroke-width:0.6;" x="522.640246" xlink:href="#m339665220a" y="310.788"/>
      </g>
     </g>
    </g>
    <g id="xtick_58">
     <g id="line2d_115">
      <path clip-path="url(#pa67ba2ebea)" d="M 530.872892 310.788 
L 530.872892 41.904 
" style="fill:none;stroke:#b0b0b0;stroke-dasharray:2.96,1.28;stroke-dashoffset:0;stroke-width:0.8;"/>
     </g>
     <g id="line2d_116">
      <g>
       <use style="stroke:#000000;stroke-width:0.6;" x="530.872892" xlink:href="#m339665220a" y="310.788"/>
      </g>
     </g>
    </g>
    <g id="xtick_59">
     <g id="line2d_117">
      <path clip-path="url(#pa67ba2ebea)" d="M 547.338185 310.788 
L 547.338185 41.904 
" style="fill:none;stroke:#b0b0b0;stroke-dasharray:2.96,1.28;stroke-dashoffset:0;stroke-width:0.8;"/>
     </g>
     <g id="line2d_118">
      <g>
       <use style="stroke:#000000;stroke-width:0.6;" x="547.338185" xlink:href="#m339665220a" y="310.788"/>
      </g>
     </g>
    </g>
    <g id="xtick_60">
     <g id="line2d_119">
      <path clip-path="url(#pa67ba2ebea)" d="M 555.570831 310.788 
L 555.570831 41.904 
" style="fill:none;stroke:#b0b0b0;stroke-dasharray:2.96,1.28;stroke-dashoffset:0;stroke-width:0.8;"/>
     </g>
     <g id="line2d_120">
      <g>
       <use style="stroke:#000000;stroke-width:0.6;" x="555.570831" xlink:href="#m339665220a" y="310.788"/>
      </g>
     </g>
    </g>
    <g id="xtick_61">
     <g id="line2d_121">
      <path clip-path="url(#pa67ba2ebea)" d="M 563.803477 310.788 
L 563.803477 41.904 
" style="fill:none;stroke:#b0b0b0;stroke-dasharray:2.96,1.28;stroke-dashoffset:0;stroke-width:0.8;"/>
     </g>
     <g id="line2d_122">
      <g>
       <use style="stroke:#000000;stroke-width:0.6;" x="563.803477" xlink:href="#m339665220a" y="310.788"/>
      </g>
     </g>
    </g>
    <g id="xtick_62">
     <g id="line2d_123">
      <path clip-path="url(#pa67ba2ebea)" d="M 572.036123 310.788 
L 572.036123 41.904 
" style="fill:none;stroke:#b0b0b0;stroke-dasharray:2.96,1.28;stroke-dashoffset:0;stroke-width:0.8;"/>
     </g>
     <g id="line2d_124">
      <g>
       <use style="stroke:#000000;stroke-width:0.6;" x="572.036123" xlink:href="#m339665220a" y="310.788"/>
      </g>
     </g>
    </g>
    <g id="xtick_63">
     <g id="line2d_125">
      <path clip-path="url(#pa67ba2ebea)" d="M 588.501415 310.788 
L 588.501415 41.904 
" style="fill:none;stroke:#b0b0b0;stroke-dasharray:2.96,1.28;stroke-dashoffset:0;stroke-width:0.8;"/>
     </g>
     <g id="line2d_126">
      <g>
       <use style="stroke:#000000;stroke-width:0.6;" x="588.501415" xlink:href="#m339665220a" y="310.788"/>
      </g>
     </g>
    </g>
    <g id="xtick_64">
     <g id="line2d_127">
      <path clip-path="url(#pa67ba2ebea)" d="M 596.734062 310.788 
L 596.734062 41.904 
" style="fill:none;stroke:#b0b0b0;stroke-dasharray:2.96,1.28;stroke-dashoffset:0;stroke-width:0.8;"/>
     </g>
     <g id="line2d_128">
      <g>
       <use style="stroke:#000000;stroke-width:0.6;" x="596.734062" xlink:href="#m339665220a" y="310.788"/>
      </g>
     </g>
    </g>
    <g id="xtick_65">
     <g id="line2d_129">
      <path clip-path="url(#pa67ba2ebea)" d="M 604.966708 310.788 
L 604.966708 41.904 
" style="fill:none;stroke:#b0b0b0;stroke-dasharray:2.96,1.28;stroke-dashoffset:0;stroke-width:0.8;"/>
     </g>
     <g id="line2d_130">
      <g>
       <use style="stroke:#000000;stroke-width:0.6;" x="604.966708" xlink:href="#m339665220a" y="310.788"/>
      </g>
     </g>
    </g>
    <g id="xtick_66">
     <g id="line2d_131">
      <path clip-path="url(#pa67ba2ebea)" d="M 613.199354 310.788 
L 613.199354 41.904 
" style="fill:none;stroke:#b0b0b0;stroke-dasharray:2.96,1.28;stroke-dashoffset:0;stroke-width:0.8;"/>
     </g>
     <g id="line2d_132">
      <g>
       <use style="stroke:#000000;stroke-width:0.6;" x="613.199354" xlink:href="#m339665220a" y="310.788"/>
      </g>
     </g>
    </g>
    <g id="text_15">
     <!-- Time, sec -->
     <g transform="translate(330.028813 339.064563)scale(0.1 -0.1)">
      <defs>
       <path d="M -19 4666 
L 3928 4666 
L 3928 4134 
L 2272 4134 
L 2272 0 
L 1638 0 
L 1638 4134 
L -19 4134 
L -19 4666 
z
" id="DejaVuSans-54" transform="scale(0.015625)"/>
       <path d="M 603 3500 
L 1178 3500 
L 1178 0 
L 603 0 
L 603 3500 
z
M 603 4863 
L 1178 4863 
L 1178 4134 
L 603 4134 
L 603 4863 
z
" id="DejaVuSans-69" transform="scale(0.015625)"/>
       <path d="M 3328 2828 
Q 3544 3216 3844 3400 
Q 4144 3584 4550 3584 
Q 5097 3584 5394 3201 
Q 5691 2819 5691 2113 
L 5691 0 
L 5113 0 
L 5113 2094 
Q 5113 2597 4934 2840 
Q 4756 3084 4391 3084 
Q 3944 3084 3684 2787 
Q 3425 2491 3425 1978 
L 3425 0 
L 2847 0 
L 2847 2094 
Q 2847 2600 2669 2842 
Q 2491 3084 2119 3084 
Q 1678 3084 1418 2786 
Q 1159 2488 1159 1978 
L 1159 0 
L 581 0 
L 581 3500 
L 1159 3500 
L 1159 2956 
Q 1356 3278 1631 3431 
Q 1906 3584 2284 3584 
Q 2666 3584 2933 3390 
Q 3200 3197 3328 2828 
z
" id="DejaVuSans-6d" transform="scale(0.015625)"/>
       <path d="M 3597 1894 
L 3597 1613 
L 953 1613 
Q 991 1019 1311 708 
Q 1631 397 2203 397 
Q 2534 397 2845 478 
Q 3156 559 3463 722 
L 3463 178 
Q 3153 47 2828 -22 
Q 2503 -91 2169 -91 
Q 1331 -91 842 396 
Q 353 884 353 1716 
Q 353 2575 817 3079 
Q 1281 3584 2069 3584 
Q 2775 3584 3186 3129 
Q 3597 2675 3597 1894 
z
M 3022 2063 
Q 3016 2534 2758 2815 
Q 2500 3097 2075 3097 
Q 1594 3097 1305 2825 
Q 1016 2553 972 2059 
L 3022 2063 
z
" id="DejaVuSans-65" transform="scale(0.015625)"/>
       <path d="M 750 794 
L 1409 794 
L 1409 256 
L 897 -744 
L 494 -744 
L 750 256 
L 750 794 
z
" id="DejaVuSans-2c" transform="scale(0.015625)"/>
       <path id="DejaVuSans-20" transform="scale(0.015625)"/>
       <path d="M 2834 3397 
L 2834 2853 
Q 2591 2978 2328 3040 
Q 2066 3103 1784 3103 
Q 1356 3103 1142 2972 
Q 928 2841 928 2578 
Q 928 2378 1081 2264 
Q 1234 2150 1697 2047 
L 1894 2003 
Q 2506 1872 2764 1633 
Q 3022 1394 3022 966 
Q 3022 478 2636 193 
Q 2250 -91 1575 -91 
Q 1294 -91 989 -36 
Q 684 19 347 128 
L 347 722 
Q 666 556 975 473 
Q 1284 391 1588 391 
Q 1994 391 2212 530 
Q 2431 669 2431 922 
Q 2431 1156 2273 1281 
Q 2116 1406 1581 1522 
L 1381 1569 
Q 847 1681 609 1914 
Q 372 2147 372 2553 
Q 372 3047 722 3315 
Q 1072 3584 1716 3584 
Q 2034 3584 2315 3537 
Q 2597 3491 2834 3397 
z
" id="DejaVuSans-73" transform="scale(0.015625)"/>
       <path d="M 3122 3366 
L 3122 2828 
Q 2878 2963 2633 3030 
Q 2388 3097 2138 3097 
Q 1578 3097 1268 2742 
Q 959 2388 959 1747 
Q 959 1106 1268 751 
Q 1578 397 2138 397 
Q 2388 397 2633 464 
Q 2878 531 3122 666 
L 3122 134 
Q 2881 22 2623 -34 
Q 2366 -91 2075 -91 
Q 1284 -91 818 406 
Q 353 903 353 1747 
Q 353 2603 823 3093 
Q 1294 3584 2113 3584 
Q 2378 3584 2631 3529 
Q 2884 3475 3122 3366 
z
" id="DejaVuSans-63" transform="scale(0.015625)"/>
      </defs>
      <use xlink:href="#DejaVuSans-54"/>
      <use x="57.958984" xlink:href="#DejaVuSans-69"/>
      <use x="85.742188" xlink:href="#DejaVuSans-6d"/>
      <use x="183.154297" xlink:href="#DejaVuSans-65"/>
      <use x="244.677734" xlink:href="#DejaVuSans-2c"/>
      <use x="276.464844" xlink:href="#DejaVuSans-20"/>
      <use x="308.251953" xlink:href="#DejaVuSans-73"/>
      <use x="360.351562" xlink:href="#DejaVuSans-65"/>
      <use x="421.875" xlink:href="#DejaVuSans-63"/>
     </g>
    </g>
   </g>
   <g id="matplotlib.axis_2">
    <g id="ytick_1">
     <g id="line2d_133">
      <path clip-path="url(#pa67ba2ebea)" d="M 86.31 310.788 
L 621.432 310.788 
" style="fill:none;stroke:#b0b0b0;stroke-linecap:square;stroke-width:0.8;"/>
     </g>
     <g id="line2d_134">
      <defs>
       <path d="M 0 0 
L -3.5 0 
" id="m0556a11ddb" style="stroke:#000000;stroke-width:0.8;"/>
      </defs>
      <g>
       <use style="stroke:#000000;stroke-width:0.8;" x="86.31" xlink:href="#m0556a11ddb" y="310.788"/>
      </g>
     </g>
     <g id="text_16">
      <!-- 0.0 -->
      <g transform="translate(63.406875 314.587219)scale(0.1 -0.1)">
       <defs>
        <path d="M 684 794 
L 1344 794 
L 1344 0 
L 684 0 
L 684 794 
z
" id="DejaVuSans-2e" transform="scale(0.015625)"/>
       </defs>
       <use xlink:href="#DejaVuSans-30"/>
       <use x="63.623047" xlink:href="#DejaVuSans-2e"/>
       <use x="95.410156" xlink:href="#DejaVuSans-30"/>
      </g>
     </g>
    </g>
    <g id="ytick_2">
     <g id="line2d_135">
      <path clip-path="url(#pa67ba2ebea)" d="M 86.31 272.376 
L 621.432 272.376 
" style="fill:none;stroke:#b0b0b0;stroke-linecap:square;stroke-width:0.8;"/>
     </g>
     <g id="line2d_136">
      <g>
       <use style="stroke:#000000;stroke-width:0.8;" x="86.31" xlink:href="#m0556a11ddb" y="272.376"/>
      </g>
     </g>
     <g id="text_17">
      <!-- 0.5 -->
      <g transform="translate(63.406875 276.175219)scale(0.1 -0.1)">
       <use xlink:href="#DejaVuSans-30"/>
       <use x="63.623047" xlink:href="#DejaVuSans-2e"/>
       <use x="95.410156" xlink:href="#DejaVuSans-35"/>
      </g>
     </g>
    </g>
    <g id="ytick_3">
     <g id="line2d_137">
      <path clip-path="url(#pa67ba2ebea)" d="M 86.31 233.964 
L 621.432 233.964 
" style="fill:none;stroke:#b0b0b0;stroke-linecap:square;stroke-width:0.8;"/>
     </g>
     <g id="line2d_138">
      <g>
       <use style="stroke:#000000;stroke-width:0.8;" x="86.31" xlink:href="#m0556a11ddb" y="233.964"/>
      </g>
     </g>
     <g id="text_18">
      <!-- 1.0 -->
      <g transform="translate(63.406875 237.763219)scale(0.1 -0.1)">
       <use xlink:href="#DejaVuSans-31"/>
       <use x="63.623047" xlink:href="#DejaVuSans-2e"/>
       <use x="95.410156" xlink:href="#DejaVuSans-30"/>
      </g>
     </g>
    </g>
    <g id="ytick_4">
     <g id="line2d_139">
      <path clip-path="url(#pa67ba2ebea)" d="M 86.31 195.552 
L 621.432 195.552 
" style="fill:none;stroke:#b0b0b0;stroke-linecap:square;stroke-width:0.8;"/>
     </g>
     <g id="line2d_140">
      <g>
       <use style="stroke:#000000;stroke-width:0.8;" x="86.31" xlink:href="#m0556a11ddb" y="195.552"/>
      </g>
     </g>
     <g id="text_19">
      <!-- 1.5 -->
      <g transform="translate(63.406875 199.351219)scale(0.1 -0.1)">
       <use xlink:href="#DejaVuSans-31"/>
       <use x="63.623047" xlink:href="#DejaVuSans-2e"/>
       <use x="95.410156" xlink:href="#DejaVuSans-35"/>
      </g>
     </g>
    </g>
    <g id="ytick_5">
     <g id="line2d_141">
      <path clip-path="url(#pa67ba2ebea)" d="M 86.31 157.14 
L 621.432 157.14 
" style="fill:none;stroke:#b0b0b0;stroke-linecap:square;stroke-width:0.8;"/>
     </g>
     <g id="line2d_142">
      <g>
       <use style="stroke:#000000;stroke-width:0.8;" x="86.31" xlink:href="#m0556a11ddb" y="157.14"/>
      </g>
     </g>
     <g id="text_20">
      <!-- 2.0 -->
      <g transform="translate(63.406875 160.939219)scale(0.1 -0.1)">
       <use xlink:href="#DejaVuSans-32"/>
       <use x="63.623047" xlink:href="#DejaVuSans-2e"/>
       <use x="95.410156" xlink:href="#DejaVuSans-30"/>
      </g>
     </g>
    </g>
    <g id="ytick_6">
     <g id="line2d_143">
      <path clip-path="url(#pa67ba2ebea)" d="M 86.31 118.728 
L 621.432 118.728 
" style="fill:none;stroke:#b0b0b0;stroke-linecap:square;stroke-width:0.8;"/>
     </g>
     <g id="line2d_144">
      <g>
       <use style="stroke:#000000;stroke-width:0.8;" x="86.31" xlink:href="#m0556a11ddb" y="118.728"/>
      </g>
     </g>
     <g id="text_21">
      <!-- 2.5 -->
      <g transform="translate(63.406875 122.527219)scale(0.1 -0.1)">
       <use xlink:href="#DejaVuSans-32"/>
       <use x="63.623047" xlink:href="#DejaVuSans-2e"/>
       <use x="95.410156" xlink:href="#DejaVuSans-35"/>
      </g>
     </g>
    </g>
    <g id="ytick_7">
     <g id="line2d_145">
      <path clip-path="url(#pa67ba2ebea)" d="M 86.31 80.316 
L 621.432 80.316 
" style="fill:none;stroke:#b0b0b0;stroke-linecap:square;stroke-width:0.8;"/>
     </g>
     <g id="line2d_146">
      <g>
       <use style="stroke:#000000;stroke-width:0.8;" x="86.31" xlink:href="#m0556a11ddb" y="80.316"/>
      </g>
     </g>
     <g id="text_22">
      <!-- 3.0 -->
      <g transform="translate(63.406875 84.115219)scale(0.1 -0.1)">
       <use xlink:href="#DejaVuSans-33"/>
       <use x="63.623047" xlink:href="#DejaVuSans-2e"/>
       <use x="95.410156" xlink:href="#DejaVuSans-30"/>
      </g>
     </g>
    </g>
    <g id="ytick_8">
     <g id="line2d_147">
      <path clip-path="url(#pa67ba2ebea)" d="M 86.31 41.904 
L 621.432 41.904 
" style="fill:none;stroke:#b0b0b0;stroke-linecap:square;stroke-width:0.8;"/>
     </g>
     <g id="line2d_148">
      <g>
       <use style="stroke:#000000;stroke-width:0.8;" x="86.31" xlink:href="#m0556a11ddb" y="41.904"/>
      </g>
     </g>
     <g id="text_23">
      <!-- 3.5 -->
      <g transform="translate(63.406875 45.703219)scale(0.1 -0.1)">
       <use xlink:href="#DejaVuSans-33"/>
       <use x="63.623047" xlink:href="#DejaVuSans-2e"/>
       <use x="95.410156" xlink:href="#DejaVuSans-35"/>
      </g>
     </g>
    </g>
    <g id="ytick_9">
     <g id="line2d_149">
      <path clip-path="url(#pa67ba2ebea)" d="M 86.31 303.1056 
L 621.432 303.1056 
" style="fill:none;stroke:#b0b0b0;stroke-dasharray:2.96,1.28;stroke-dashoffset:0;stroke-width:0.8;"/>
     </g>
     <g id="line2d_150">
      <defs>
       <path d="M 0 0 
L -2 0 
" id="m2164ea9228" style="stroke:#000000;stroke-width:0.6;"/>
      </defs>
      <g>
       <use style="stroke:#000000;stroke-width:0.6;" x="86.31" xlink:href="#m2164ea9228" y="303.1056"/>
      </g>
     </g>
    </g>
    <g id="ytick_10">
     <g id="line2d_151">
      <path clip-path="url(#pa67ba2ebea)" d="M 86.31 295.4232 
L 621.432 295.4232 
" style="fill:none;stroke:#b0b0b0;stroke-dasharray:2.96,1.28;stroke-dashoffset:0;stroke-width:0.8;"/>
     </g>
     <g id="line2d_152">
      <g>
       <use style="stroke:#000000;stroke-width:0.6;" x="86.31" xlink:href="#m2164ea9228" y="295.4232"/>
      </g>
     </g>
    </g>
    <g id="ytick_11">
     <g id="line2d_153">
      <path clip-path="url(#pa67ba2ebea)" d="M 86.31 287.7408 
L 621.432 287.7408 
" style="fill:none;stroke:#b0b0b0;stroke-dasharray:2.96,1.28;stroke-dashoffset:0;stroke-width:0.8;"/>
     </g>
     <g id="line2d_154">
      <g>
       <use style="stroke:#000000;stroke-width:0.6;" x="86.31" xlink:href="#m2164ea9228" y="287.7408"/>
      </g>
     </g>
    </g>
    <g id="ytick_12">
     <g id="line2d_155">
      <path clip-path="url(#pa67ba2ebea)" d="M 86.31 280.0584 
L 621.432 280.0584 
" style="fill:none;stroke:#b0b0b0;stroke-dasharray:2.96,1.28;stroke-dashoffset:0;stroke-width:0.8;"/>
     </g>
     <g id="line2d_156">
      <g>
       <use style="stroke:#000000;stroke-width:0.6;" x="86.31" xlink:href="#m2164ea9228" y="280.0584"/>
      </g>
     </g>
    </g>
    <g id="ytick_13">
     <g id="line2d_157">
      <path clip-path="url(#pa67ba2ebea)" d="M 86.31 264.6936 
L 621.432 264.6936 
" style="fill:none;stroke:#b0b0b0;stroke-dasharray:2.96,1.28;stroke-dashoffset:0;stroke-width:0.8;"/>
     </g>
     <g id="line2d_158">
      <g>
       <use style="stroke:#000000;stroke-width:0.6;" x="86.31" xlink:href="#m2164ea9228" y="264.6936"/>
      </g>
     </g>
    </g>
    <g id="ytick_14">
     <g id="line2d_159">
      <path clip-path="url(#pa67ba2ebea)" d="M 86.31 257.0112 
L 621.432 257.0112 
" style="fill:none;stroke:#b0b0b0;stroke-dasharray:2.96,1.28;stroke-dashoffset:0;stroke-width:0.8;"/>
     </g>
     <g id="line2d_160">
      <g>
       <use style="stroke:#000000;stroke-width:0.6;" x="86.31" xlink:href="#m2164ea9228" y="257.0112"/>
      </g>
     </g>
    </g>
    <g id="ytick_15">
     <g id="line2d_161">
      <path clip-path="url(#pa67ba2ebea)" d="M 86.31 249.3288 
L 621.432 249.3288 
" style="fill:none;stroke:#b0b0b0;stroke-dasharray:2.96,1.28;stroke-dashoffset:0;stroke-width:0.8;"/>
     </g>
     <g id="line2d_162">
      <g>
       <use style="stroke:#000000;stroke-width:0.6;" x="86.31" xlink:href="#m2164ea9228" y="249.3288"/>
      </g>
     </g>
    </g>
    <g id="ytick_16">
     <g id="line2d_163">
      <path clip-path="url(#pa67ba2ebea)" d="M 86.31 241.6464 
L 621.432 241.6464 
" style="fill:none;stroke:#b0b0b0;stroke-dasharray:2.96,1.28;stroke-dashoffset:0;stroke-width:0.8;"/>
     </g>
     <g id="line2d_164">
      <g>
       <use style="stroke:#000000;stroke-width:0.6;" x="86.31" xlink:href="#m2164ea9228" y="241.6464"/>
      </g>
     </g>
    </g>
    <g id="ytick_17">
     <g id="line2d_165">
      <path clip-path="url(#pa67ba2ebea)" d="M 86.31 226.2816 
L 621.432 226.2816 
" style="fill:none;stroke:#b0b0b0;stroke-dasharray:2.96,1.28;stroke-dashoffset:0;stroke-width:0.8;"/>
     </g>
     <g id="line2d_166">
      <g>
       <use style="stroke:#000000;stroke-width:0.6;" x="86.31" xlink:href="#m2164ea9228" y="226.2816"/>
      </g>
     </g>
    </g>
    <g id="ytick_18">
     <g id="line2d_167">
      <path clip-path="url(#pa67ba2ebea)" d="M 86.31 218.5992 
L 621.432 218.5992 
" style="fill:none;stroke:#b0b0b0;stroke-dasharray:2.96,1.28;stroke-dashoffset:0;stroke-width:0.8;"/>
     </g>
     <g id="line2d_168">
      <g>
       <use style="stroke:#000000;stroke-width:0.6;" x="86.31" xlink:href="#m2164ea9228" y="218.5992"/>
      </g>
     </g>
    </g>
    <g id="ytick_19">
     <g id="line2d_169">
      <path clip-path="url(#pa67ba2ebea)" d="M 86.31 210.9168 
L 621.432 210.9168 
" style="fill:none;stroke:#b0b0b0;stroke-dasharray:2.96,1.28;stroke-dashoffset:0;stroke-width:0.8;"/>
     </g>
     <g id="line2d_170">
      <g>
       <use style="stroke:#000000;stroke-width:0.6;" x="86.31" xlink:href="#m2164ea9228" y="210.9168"/>
      </g>
     </g>
    </g>
    <g id="ytick_20">
     <g id="line2d_171">
      <path clip-path="url(#pa67ba2ebea)" d="M 86.31 203.2344 
L 621.432 203.2344 
" style="fill:none;stroke:#b0b0b0;stroke-dasharray:2.96,1.28;stroke-dashoffset:0;stroke-width:0.8;"/>
     </g>
     <g id="line2d_172">
      <g>
       <use style="stroke:#000000;stroke-width:0.6;" x="86.31" xlink:href="#m2164ea9228" y="203.2344"/>
      </g>
     </g>
    </g>
    <g id="ytick_21">
     <g id="line2d_173">
      <path clip-path="url(#pa67ba2ebea)" d="M 86.31 187.8696 
L 621.432 187.8696 
" style="fill:none;stroke:#b0b0b0;stroke-dasharray:2.96,1.28;stroke-dashoffset:0;stroke-width:0.8;"/>
     </g>
     <g id="line2d_174">
      <g>
       <use style="stroke:#000000;stroke-width:0.6;" x="86.31" xlink:href="#m2164ea9228" y="187.8696"/>
      </g>
     </g>
    </g>
    <g id="ytick_22">
     <g id="line2d_175">
      <path clip-path="url(#pa67ba2ebea)" d="M 86.31 180.1872 
L 621.432 180.1872 
" style="fill:none;stroke:#b0b0b0;stroke-dasharray:2.96,1.28;stroke-dashoffset:0;stroke-width:0.8;"/>
     </g>
     <g id="line2d_176">
      <g>
       <use style="stroke:#000000;stroke-width:0.6;" x="86.31" xlink:href="#m2164ea9228" y="180.1872"/>
      </g>
     </g>
    </g>
    <g id="ytick_23">
     <g id="line2d_177">
      <path clip-path="url(#pa67ba2ebea)" d="M 86.31 172.5048 
L 621.432 172.5048 
" style="fill:none;stroke:#b0b0b0;stroke-dasharray:2.96,1.28;stroke-dashoffset:0;stroke-width:0.8;"/>
     </g>
     <g id="line2d_178">
      <g>
       <use style="stroke:#000000;stroke-width:0.6;" x="86.31" xlink:href="#m2164ea9228" y="172.5048"/>
      </g>
     </g>
    </g>
    <g id="ytick_24">
     <g id="line2d_179">
      <path clip-path="url(#pa67ba2ebea)" d="M 86.31 164.8224 
L 621.432 164.8224 
" style="fill:none;stroke:#b0b0b0;stroke-dasharray:2.96,1.28;stroke-dashoffset:0;stroke-width:0.8;"/>
     </g>
     <g id="line2d_180">
      <g>
       <use style="stroke:#000000;stroke-width:0.6;" x="86.31" xlink:href="#m2164ea9228" y="164.8224"/>
      </g>
     </g>
    </g>
    <g id="ytick_25">
     <g id="line2d_181">
      <path clip-path="url(#pa67ba2ebea)" d="M 86.31 149.4576 
L 621.432 149.4576 
" style="fill:none;stroke:#b0b0b0;stroke-dasharray:2.96,1.28;stroke-dashoffset:0;stroke-width:0.8;"/>
     </g>
     <g id="line2d_182">
      <g>
       <use style="stroke:#000000;stroke-width:0.6;" x="86.31" xlink:href="#m2164ea9228" y="149.4576"/>
      </g>
     </g>
    </g>
    <g id="ytick_26">
     <g id="line2d_183">
      <path clip-path="url(#pa67ba2ebea)" d="M 86.31 141.7752 
L 621.432 141.7752 
" style="fill:none;stroke:#b0b0b0;stroke-dasharray:2.96,1.28;stroke-dashoffset:0;stroke-width:0.8;"/>
     </g>
     <g id="line2d_184">
      <g>
       <use style="stroke:#000000;stroke-width:0.6;" x="86.31" xlink:href="#m2164ea9228" y="141.7752"/>
      </g>
     </g>
    </g>
    <g id="ytick_27">
     <g id="line2d_185">
      <path clip-path="url(#pa67ba2ebea)" d="M 86.31 134.0928 
L 621.432 134.0928 
" style="fill:none;stroke:#b0b0b0;stroke-dasharray:2.96,1.28;stroke-dashoffset:0;stroke-width:0.8;"/>
     </g>
     <g id="line2d_186">
      <g>
       <use style="stroke:#000000;stroke-width:0.6;" x="86.31" xlink:href="#m2164ea9228" y="134.0928"/>
      </g>
     </g>
    </g>
    <g id="ytick_28">
     <g id="line2d_187">
      <path clip-path="url(#pa67ba2ebea)" d="M 86.31 126.4104 
L 621.432 126.4104 
" style="fill:none;stroke:#b0b0b0;stroke-dasharray:2.96,1.28;stroke-dashoffset:0;stroke-width:0.8;"/>
     </g>
     <g id="line2d_188">
      <g>
       <use style="stroke:#000000;stroke-width:0.6;" x="86.31" xlink:href="#m2164ea9228" y="126.4104"/>
      </g>
     </g>
    </g>
    <g id="ytick_29">
     <g id="line2d_189">
      <path clip-path="url(#pa67ba2ebea)" d="M 86.31 111.0456 
L 621.432 111.0456 
" style="fill:none;stroke:#b0b0b0;stroke-dasharray:2.96,1.28;stroke-dashoffset:0;stroke-width:0.8;"/>
     </g>
     <g id="line2d_190">
      <g>
       <use style="stroke:#000000;stroke-width:0.6;" x="86.31" xlink:href="#m2164ea9228" y="111.0456"/>
      </g>
     </g>
    </g>
    <g id="ytick_30">
     <g id="line2d_191">
      <path clip-path="url(#pa67ba2ebea)" d="M 86.31 103.3632 
L 621.432 103.3632 
" style="fill:none;stroke:#b0b0b0;stroke-dasharray:2.96,1.28;stroke-dashoffset:0;stroke-width:0.8;"/>
     </g>
     <g id="line2d_192">
      <g>
       <use style="stroke:#000000;stroke-width:0.6;" x="86.31" xlink:href="#m2164ea9228" y="103.3632"/>
      </g>
     </g>
    </g>
    <g id="ytick_31">
     <g id="line2d_193">
      <path clip-path="url(#pa67ba2ebea)" d="M 86.31 95.6808 
L 621.432 95.6808 
" style="fill:none;stroke:#b0b0b0;stroke-dasharray:2.96,1.28;stroke-dashoffset:0;stroke-width:0.8;"/>
     </g>
     <g id="line2d_194">
      <g>
       <use style="stroke:#000000;stroke-width:0.6;" x="86.31" xlink:href="#m2164ea9228" y="95.6808"/>
      </g>
     </g>
    </g>
    <g id="ytick_32">
     <g id="line2d_195">
      <path clip-path="url(#pa67ba2ebea)" d="M 86.31 87.9984 
L 621.432 87.9984 
" style="fill:none;stroke:#b0b0b0;stroke-dasharray:2.96,1.28;stroke-dashoffset:0;stroke-width:0.8;"/>
     </g>
     <g id="line2d_196">
      <g>
       <use style="stroke:#000000;stroke-width:0.6;" x="86.31" xlink:href="#m2164ea9228" y="87.9984"/>
      </g>
     </g>
    </g>
    <g id="ytick_33">
     <g id="line2d_197">
      <path clip-path="url(#pa67ba2ebea)" d="M 86.31 72.6336 
L 621.432 72.6336 
" style="fill:none;stroke:#b0b0b0;stroke-dasharray:2.96,1.28;stroke-dashoffset:0;stroke-width:0.8;"/>
     </g>
     <g id="line2d_198">
      <g>
       <use style="stroke:#000000;stroke-width:0.6;" x="86.31" xlink:href="#m2164ea9228" y="72.6336"/>
      </g>
     </g>
    </g>
    <g id="ytick_34">
     <g id="line2d_199">
      <path clip-path="url(#pa67ba2ebea)" d="M 86.31 64.9512 
L 621.432 64.9512 
" style="fill:none;stroke:#b0b0b0;stroke-dasharray:2.96,1.28;stroke-dashoffset:0;stroke-width:0.8;"/>
     </g>
     <g id="line2d_200">
      <g>
       <use style="stroke:#000000;stroke-width:0.6;" x="86.31" xlink:href="#m2164ea9228" y="64.9512"/>
      </g>
     </g>
    </g>
    <g id="ytick_35">
     <g id="line2d_201">
      <path clip-path="url(#pa67ba2ebea)" d="M 86.31 57.2688 
L 621.432 57.2688 
" style="fill:none;stroke:#b0b0b0;stroke-dasharray:2.96,1.28;stroke-dashoffset:0;stroke-width:0.8;"/>
     </g>
     <g id="line2d_202">
      <g>
       <use style="stroke:#000000;stroke-width:0.6;" x="86.31" xlink:href="#m2164ea9228" y="57.2688"/>
      </g>
     </g>
    </g>
    <g id="ytick_36">
     <g id="line2d_203">
      <path clip-path="url(#pa67ba2ebea)" d="M 86.31 49.5864 
L 621.432 49.5864 
" style="fill:none;stroke:#b0b0b0;stroke-dasharray:2.96,1.28;stroke-dashoffset:0;stroke-width:0.8;"/>
     </g>
     <g id="line2d_204">
      <g>
       <use style="stroke:#000000;stroke-width:0.6;" x="86.31" xlink:href="#m2164ea9228" y="49.5864"/>
      </g>
     </g>
    </g>
    <g id="text_24">
     <!-- Voltage, V -->
     <g transform="translate(57.327187 201.700688)rotate(-90)scale(0.1 -0.1)">
      <defs>
       <path d="M 1831 0 
L 50 4666 
L 709 4666 
L 2188 738 
L 3669 4666 
L 4325 4666 
L 2547 0 
L 1831 0 
z
" id="DejaVuSans-56" transform="scale(0.015625)"/>
       <path d="M 1959 3097 
Q 1497 3097 1228 2736 
Q 959 2375 959 1747 
Q 959 1119 1226 758 
Q 1494 397 1959 397 
Q 2419 397 2687 759 
Q 2956 1122 2956 1747 
Q 2956 2369 2687 2733 
Q 2419 3097 1959 3097 
z
M 1959 3584 
Q 2709 3584 3137 3096 
Q 3566 2609 3566 1747 
Q 3566 888 3137 398 
Q 2709 -91 1959 -91 
Q 1206 -91 779 398 
Q 353 888 353 1747 
Q 353 2609 779 3096 
Q 1206 3584 1959 3584 
z
" id="DejaVuSans-6f" transform="scale(0.015625)"/>
       <path d="M 603 4863 
L 1178 4863 
L 1178 0 
L 603 0 
L 603 4863 
z
" id="DejaVuSans-6c" transform="scale(0.015625)"/>
       <path d="M 1172 4494 
L 1172 3500 
L 2356 3500 
L 2356 3053 
L 1172 3053 
L 1172 1153 
Q 1172 725 1289 603 
Q 1406 481 1766 481 
L 2356 481 
L 2356 0 
L 1766 0 
Q 1100 0 847 248 
Q 594 497 594 1153 
L 594 3053 
L 172 3053 
L 172 3500 
L 594 3500 
L 594 4494 
L 1172 4494 
z
" id="DejaVuSans-74" transform="scale(0.015625)"/>
       <path d="M 2194 1759 
Q 1497 1759 1228 1600 
Q 959 1441 959 1056 
Q 959 750 1161 570 
Q 1363 391 1709 391 
Q 2188 391 2477 730 
Q 2766 1069 2766 1631 
L 2766 1759 
L 2194 1759 
z
M 3341 1997 
L 3341 0 
L 2766 0 
L 2766 531 
Q 2569 213 2275 61 
Q 1981 -91 1556 -91 
Q 1019 -91 701 211 
Q 384 513 384 1019 
Q 384 1609 779 1909 
Q 1175 2209 1959 2209 
L 2766 2209 
L 2766 2266 
Q 2766 2663 2505 2880 
Q 2244 3097 1772 3097 
Q 1472 3097 1187 3025 
Q 903 2953 641 2809 
L 641 3341 
Q 956 3463 1253 3523 
Q 1550 3584 1831 3584 
Q 2591 3584 2966 3190 
Q 3341 2797 3341 1997 
z
" id="DejaVuSans-61" transform="scale(0.015625)"/>
       <path d="M 2906 1791 
Q 2906 2416 2648 2759 
Q 2391 3103 1925 3103 
Q 1463 3103 1205 2759 
Q 947 2416 947 1791 
Q 947 1169 1205 825 
Q 1463 481 1925 481 
Q 2391 481 2648 825 
Q 2906 1169 2906 1791 
z
M 3481 434 
Q 3481 -459 3084 -895 
Q 2688 -1331 1869 -1331 
Q 1566 -1331 1297 -1286 
Q 1028 -1241 775 -1147 
L 775 -588 
Q 1028 -725 1275 -790 
Q 1522 -856 1778 -856 
Q 2344 -856 2625 -561 
Q 2906 -266 2906 331 
L 2906 616 
Q 2728 306 2450 153 
Q 2172 0 1784 0 
Q 1141 0 747 490 
Q 353 981 353 1791 
Q 353 2603 747 3093 
Q 1141 3584 1784 3584 
Q 2172 3584 2450 3431 
Q 2728 3278 2906 2969 
L 2906 3500 
L 3481 3500 
L 3481 434 
z
" id="DejaVuSans-67" transform="scale(0.015625)"/>
      </defs>
      <use xlink:href="#DejaVuSans-56"/>
      <use x="60.658203" xlink:href="#DejaVuSans-6f"/>
      <use x="121.839844" xlink:href="#DejaVuSans-6c"/>
      <use x="149.623047" xlink:href="#DejaVuSans-74"/>
      <use x="188.832031" xlink:href="#DejaVuSans-61"/>
      <use x="250.111328" xlink:href="#DejaVuSans-67"/>
      <use x="313.587891" xlink:href="#DejaVuSans-65"/>
      <use x="375.111328" xlink:href="#DejaVuSans-2c"/>
      <use x="406.898438" xlink:href="#DejaVuSans-20"/>
      <use x="438.685547" xlink:href="#DejaVuSans-56"/>
     </g>
    </g>
   </g>
   <g id="line2d_205">
    <path clip-path="url(#pa67ba2ebea)" d="M 86.31 308.807381 
L 87.738039 300.884906 
L 88.452059 297.913978 
L 89.880098 289.991503 
L 91.308137 284.049647 
L 92.022157 280.088409 
L 92.736177 277.117481 
L 93.450196 273.156244 
L 94.878235 267.214388 
L 95.592255 261.272531 
L 96.306275 260.282222 
L 97.020294 256.320984 
L 97.734314 253.350056 
L 98.448333 251.369438 
L 100.590392 242.456653 
L 101.304412 240.476034 
L 102.732451 234.534178 
L 103.446471 232.553559 
L 104.16049 228.592322 
L 104.87451 225.621394 
L 106.302549 221.660156 
L 107.016569 217.698919 
L 107.730588 216.708609 
L 108.444608 213.737681 
L 109.158628 212.747372 
L 109.872647 209.776444 
L 110.586667 207.795825 
L 112.014706 201.853969 
L 112.728726 200.863659 
L 113.442745 198.883041 
L 114.156765 195.912113 
L 117.726863 186.009019 
L 118.440883 185.018709 
L 119.868922 181.057472 
L 120.582941 180.067163 
L 121.296961 177.096234 
L 122.010981 176.105925 
L 123.43902 172.144688 
L 124.15304 171.154378 
L 124.867059 168.18345 
L 126.295098 164.222213 
L 127.009118 163.231903 
L 127.723138 163.231903 
L 129.865196 157.290047 
L 131.293236 155.309428 
L 132.007255 153.328809 
L 132.721275 153.328809 
L 134.149314 149.367572 
L 134.863334 149.367572 
L 136.291373 145.406334 
L 137.005393 145.406334 
L 137.719412 142.435406 
L 138.433432 141.445097 
L 139.147451 141.445097 
L 139.861471 139.464478 
L 140.575491 139.464478 
L 141.28951 137.483859 
L 142.00353 137.483859 
L 142.71755 134.512931 
L 143.431569 134.512931 
L 144.145589 131.542003 
L 144.859608 132.532313 
L 146.287648 128.571075 
L 147.001667 127.580766 
L 148.429706 127.580766 
L 149.143726 124.609838 
L 149.857746 123.619528 
L 151.285785 123.619528 
L 151.999805 121.638909 
L 152.713824 121.638909 
L 153.427844 119.658291 
L 154.855883 119.658291 
L 155.569903 118.667981 
L 156.283922 116.687363 
L 156.997942 116.687363 
L 157.711961 114.706744 
L 158.425981 115.697053 
L 159.140001 113.716434 
L 159.85402 112.726125 
L 160.56804 112.726125 
L 161.996079 110.745506 
L 162.710099 110.745506 
L 164.138138 108.764888 
L 164.852158 108.764888 
L 165.566177 106.784269 
L 166.280197 106.784269 
L 167.708236 104.80365 
L 168.422256 104.80365 
L 169.136275 102.823031 
L 169.850295 103.813341 
L 170.564314 103.813341 
L 171.992354 101.832722 
L 172.706373 101.832722 
L 173.420393 99.852103 
L 174.848432 99.852103 
L 175.562452 97.871484 
L 176.276471 98.861794 
L 176.990491 97.871484 
L 177.704511 97.871484 
L 179.846569 94.900556 
L 180.560589 95.890866 
L 181.274609 93.910247 
L 183.416668 93.910247 
L 184.844707 91.929628 
L 185.558726 92.919938 
L 186.272746 91.929628 
L 186.986766 89.949009 
L 187.700785 90.939319 
L 189.128824 88.9587 
L 189.842844 89.949009 
L 190.556864 89.949009 
L 191.984903 87.968391 
L 192.698923 88.9587 
L 193.412942 86.978081 
L 194.840981 86.978081 
L 195.555001 85.987772 
L 196.269021 85.987772 
L 196.98304 86.978081 
L 197.69706 85.987772 
L 198.411079 85.987772 
L 199.125099 84.997463 
L 199.839119 84.997463 
L 200.553138 84.007153 
L 201.267158 84.997463 
L 201.981178 84.007153 
L 202.695197 84.007153 
L 204.123236 82.026534 
L 204.837256 83.016844 
L 205.551276 82.026534 
L 206.265295 82.026534 
L 206.979315 81.036225 
L 207.693334 82.026534 
L 208.407354 81.036225 
L 211.263433 81.036225 
L 212.691472 79.055606 
L 213.405491 80.045916 
L 214.119511 80.045916 
L 214.833531 79.055606 
L 216.26157 79.055606 
L 216.975589 78.065297 
L 217.689609 78.065297 
L 218.403629 77.074988 
L 219.117648 78.065297 
L 219.831668 77.074988 
L 220.545688 77.074988 
L 221.259707 78.065297 
L 221.973727 78.065297 
L 223.401766 76.084678 
L 224.115786 77.074988 
L 224.829805 77.074988 
L 225.543825 76.084678 
L 226.257844 77.074988 
L 226.971864 76.084678 
L 229.113923 76.084678 
L 229.827942 75.094369 
L 230.541962 75.094369 
L 231.255982 76.084678 
L 231.970001 75.094369 
L 233.398041 75.094369 
L 234.11206 73.11375 
L 234.82608 75.094369 
L 235.540099 74.104059 
L 236.254119 75.094369 
L 236.968139 74.104059 
L 237.682158 74.104059 
L 238.396178 73.11375 
L 239.110197 73.11375 
L 239.824217 74.104059 
L 240.538237 74.104059 
L 241.252256 72.123441 
L 241.966276 74.104059 
L 242.680296 73.11375 
L 243.394315 73.11375 
L 244.108335 72.123441 
L 244.822354 72.123441 
L 245.536374 71.133131 
L 246.964413 73.11375 
L 247.678433 73.11375 
L 249.106472 71.133131 
L 249.820492 72.123441 
L 250.534511 71.133131 
L 253.39059 71.133131 
L 254.104609 72.123441 
L 254.818629 71.133131 
L 255.532649 71.133131 
L 256.246668 70.142822 
L 256.960688 71.133131 
L 258.388727 71.133131 
L 259.102747 70.142822 
L 259.816766 71.133131 
L 260.530786 71.133131 
L 261.244806 70.142822 
L 261.958825 71.133131 
L 262.672845 69.152513 
L 263.386864 71.133131 
L 264.100884 71.133131 
L 265.528923 69.152513 
L 266.242943 69.152513 
L 266.956962 70.142822 
L 267.670982 69.152513 
L 269.099021 69.152513 
L 269.813041 68.162203 
L 270.527061 70.142822 
L 271.9551 68.162203 
L 272.669119 68.162203 
L 273.383139 69.152513 
L 276.953237 69.152513 
L 277.667257 68.162203 
L 278.381276 69.152513 
L 279.095296 68.162203 
L 279.809315 69.152513 
L 280.523335 68.162203 
L 281.237355 68.162203 
L 281.951374 69.152513 
L 282.665394 69.152513 
L 283.379414 68.162203 
L 284.093433 69.152513 
L 284.807453 68.162203 
L 285.521472 68.162203 
L 286.235492 67.171894 
L 287.663531 69.152513 
L 288.377551 67.171894 
L 289.09157 67.171894 
L 289.80559 68.162203 
L 290.51961 67.171894 
L 291.233629 68.162203 
L 291.947649 67.171894 
L 292.661669 68.162203 
L 293.375688 68.162203 
L 294.089708 67.171894 
L 294.803727 68.162203 
L 295.517747 67.171894 
L 296.231767 68.162203 
L 296.945786 68.162203 
L 297.659806 67.171894 
L 298.373825 68.162203 
L 299.087845 67.171894 
L 299.801865 67.171894 
L 300.515884 66.181584 
L 301.229904 68.162203 
L 301.943924 68.162203 
L 302.657943 67.171894 
L 303.371963 68.162203 
L 305.514022 68.162203 
L 306.228041 67.171894 
L 306.942061 67.171894 
L 307.65608 66.181584 
L 308.3701 68.162203 
L 309.08412 68.162203 
L 309.798139 67.171894 
L 311.226179 67.171894 
L 311.940198 66.181584 
L 312.654218 66.181584 
L 314.082257 68.162203 
L 314.796277 67.171894 
L 315.510296 67.171894 
L 316.224316 68.162203 
L 317.652355 66.181584 
L 319.080394 68.162203 
L 319.794414 67.171894 
L 320.508434 68.162203 
L 321.222453 67.171894 
L 323.364512 67.171894 
L 324.078532 65.191275 
L 324.792551 69.152513 
L 326.22059 75.094369 
L 326.93461 79.055606 
L 327.64863 84.007153 
L 328.362649 86.978081 
L 329.076669 90.939319 
L 329.790689 93.910247 
L 330.504708 97.871484 
L 331.218728 99.852103 
L 331.932747 102.823031 
L 332.646767 107.774578 
L 333.360787 108.764888 
L 334.788826 116.687363 
L 336.216865 120.6486 
L 336.930885 124.609838 
L 337.644904 127.580766 
L 338.358924 128.571075 
L 339.072943 132.532313 
L 341.215002 141.445097 
L 341.929022 142.435406 
L 342.643042 146.396644 
L 344.071081 152.3385 
L 344.7851 152.3385 
L 345.49912 156.299738 
L 346.21314 157.290047 
L 347.641179 161.251284 
L 349.069218 167.193141 
L 349.783238 168.18345 
L 351.211277 174.125306 
L 351.925297 175.115616 
L 354.781375 183.038091 
L 355.495395 184.0284 
L 356.209414 187.989638 
L 356.923434 187.989638 
L 357.637453 191.950875 
L 358.351473 193.931494 
L 359.065493 194.921803 
L 359.779512 196.902422 
L 360.493532 197.892731 
L 361.921571 201.853969 
L 363.34961 203.834588 
L 364.06363 205.815206 
L 364.77765 208.786134 
L 365.491669 208.786134 
L 366.205689 209.776444 
L 368.347748 215.7183 
L 369.061767 215.7183 
L 370.489807 219.679538 
L 371.203826 219.679538 
L 372.631865 223.640775 
L 373.345885 224.631084 
L 374.059905 226.611703 
L 374.773924 226.611703 
L 376.201963 230.572941 
L 376.915983 230.572941 
L 377.630003 231.56325 
L 378.344022 233.543869 
L 379.772062 235.524488 
L 380.486081 237.505106 
L 381.200101 237.505106 
L 382.62814 239.485725 
L 383.34216 241.466344 
L 384.770199 243.446963 
L 385.484218 243.446963 
L 386.198238 245.427581 
L 387.626277 245.427581 
L 388.340297 247.4082 
L 389.054316 248.398509 
L 389.768336 250.379128 
L 390.482356 250.379128 
L 391.910395 252.359747 
L 392.624415 252.359747 
L 393.338434 254.340366 
L 394.052454 255.330675 
L 395.480493 255.330675 
L 396.194513 258.301603 
L 396.908532 258.301603 
L 397.622552 259.291913 
L 398.336571 259.291913 
L 399.050591 260.282222 
L 399.764611 260.282222 
L 400.47863 262.262841 
L 401.19265 262.262841 
L 401.90667 264.243459 
L 402.620689 263.25315 
L 403.334709 263.25315 
L 404.048728 265.233769 
L 405.476768 267.214388 
L 406.904807 267.214388 
L 407.618826 269.195006 
L 409.046866 269.195006 
L 409.760885 270.185316 
L 410.474905 270.185316 
L 411.188925 272.165934 
L 411.902944 271.175625 
L 412.616964 273.156244 
L 413.330983 273.156244 
L 414.045003 274.146553 
L 415.473042 274.146553 
L 417.615101 277.117481 
L 419.75716 277.117481 
L 421.899219 280.088409 
L 422.613238 280.088409 
L 423.327258 281.078719 
L 424.041278 280.088409 
L 425.469317 282.069028 
L 426.183336 282.069028 
L 426.897356 283.059338 
L 427.611376 282.069028 
L 428.325395 283.059338 
L 429.039415 283.059338 
L 429.753435 285.039956 
L 430.467454 284.049647 
L 431.181474 284.049647 
L 431.895493 285.039956 
L 432.609513 285.039956 
L 433.323533 286.030266 
L 434.037552 285.039956 
L 435.465591 287.020575 
L 436.179611 286.030266 
L 436.893631 288.010884 
L 437.60765 287.020575 
L 438.32167 289.001194 
L 439.03569 288.010884 
L 439.749709 289.001194 
L 441.177748 289.001194 
L 442.605788 290.981812 
L 443.319807 290.981812 
L 444.033827 289.991503 
L 445.461866 289.991503 
L 446.175886 291.972122 
L 446.889905 291.972122 
L 447.603925 292.962431 
L 448.317944 291.972122 
L 449.031964 291.972122 
L 450.460003 293.952741 
L 454.030101 293.952741 
L 455.458141 295.933359 
L 456.17216 294.94305 
L 456.88618 295.933359 
L 457.600199 294.94305 
L 458.314219 294.94305 
L 459.028239 296.923669 
L 460.456278 296.923669 
L 461.170298 295.933359 
L 462.598337 295.933359 
L 463.312356 296.923669 
L 464.740396 296.923669 
L 466.168435 298.904288 
L 466.882454 298.904288 
L 467.596474 297.913978 
L 468.310494 299.894597 
L 469.738533 299.894597 
L 470.452553 298.904288 
L 471.166572 298.904288 
L 471.880592 299.894597 
L 472.594611 298.904288 
L 473.308631 300.884906 
L 474.73667 298.904288 
L 475.45069 299.894597 
L 476.164709 299.894597 
L 476.878729 300.884906 
L 477.592749 299.894597 
L 478.306768 301.875216 
L 479.020788 301.875216 
L 479.734808 300.884906 
L 480.448827 301.875216 
L 481.162847 301.875216 
L 481.876866 300.884906 
L 482.590886 301.875216 
L 483.304906 300.884906 
L 484.018925 301.875216 
L 484.732945 300.884906 
L 486.160984 302.865525 
L 487.589023 302.865525 
L 488.303043 301.875216 
L 489.017063 303.855834 
L 489.731082 301.875216 
L 490.445102 302.865525 
L 491.159121 302.865525 
L 491.873141 303.855834 
L 493.30118 303.855834 
L 494.0152 302.865525 
L 496.157259 302.865525 
L 496.871278 304.846144 
L 498.299317 302.865525 
L 499.013337 304.846144 
L 499.727357 302.865525 
L 500.441376 304.846144 
L 501.155396 304.846144 
L 501.869416 303.855834 
L 502.583435 303.855834 
L 503.297455 304.846144 
L 504.011474 303.855834 
L 504.725494 305.836453 
L 505.439514 304.846144 
L 506.153533 305.836453 
L 507.581572 303.855834 
L 508.295592 304.846144 
L 509.009612 304.846144 
L 510.437651 306.826763 
L 511.151671 304.846144 
L 511.86569 304.846144 
L 513.293729 306.826763 
L 514.007749 305.836453 
L 517.577847 305.836453 
L 518.291867 306.826763 
L 519.005886 305.836453 
L 519.719906 306.826763 
L 520.433926 305.836453 
L 521.147945 306.826763 
L 521.861965 306.826763 
L 522.575984 305.836453 
L 523.290004 307.817072 
L 524.004024 305.836453 
L 524.718043 305.836453 
L 525.432063 306.826763 
L 527.574122 306.826763 
L 528.288141 305.836453 
L 529.002161 306.826763 
L 532.572259 306.826763 
L 533.286279 307.817072 
L 535.428337 307.817072 
L 536.142357 306.826763 
L 538.284416 306.826763 
L 538.998436 307.817072 
L 539.712455 307.817072 
L 540.426475 308.807381 
L 541.140494 306.826763 
L 541.854514 307.817072 
L 542.568534 307.817072 
L 543.282553 308.807381 
L 543.996573 307.817072 
L 544.710592 307.817072 
L 545.424612 308.807381 
L 546.138632 308.807381 
L 546.852651 306.826763 
L 547.566671 308.807381 
L 548.280691 307.817072 
L 548.99471 308.807381 
L 550.422749 308.807381 
L 551.136769 307.817072 
L 551.850789 307.817072 
L 552.564808 308.807381 
L 553.278828 307.817072 
L 553.992847 308.807381 
L 554.706867 308.807381 
L 556.134906 306.826763 
L 556.848926 307.817072 
L 557.562945 307.817072 
L 558.276965 309.797691 
L 558.990985 307.817072 
L 559.705004 308.807381 
L 560.419024 307.817072 
L 561.133044 308.807381 
L 562.561083 308.807381 
L 563.275102 307.817072 
L 564.703142 309.797691 
L 565.417161 309.797691 
L 566.131181 307.817072 
L 567.55922 309.797691 
L 568.27324 307.817072 
L 568.987259 309.797691 
L 569.701279 308.807381 
L 572.557357 308.807381 
L 573.271377 309.797691 
L 577.555495 309.797691 
L 578.269514 308.807381 
L 578.983534 309.797691 
L 580.411573 309.797691 
L 581.125593 308.807381 
L 581.839612 308.807381 
L 582.553632 309.797691 
L 583.267652 308.807381 
L 583.981671 309.797691 
L 584.695691 308.807381 
L 585.40971 309.797691 
L 586.83775 309.797691 
L 587.551769 308.807381 
L 588.265789 309.797691 
L 588.979809 308.807381 
L 589.693828 309.797691 
L 590.407848 308.807381 
L 591.121867 309.797691 
L 591.835887 309.797691 
L 592.549907 308.807381 
L 593.263926 309.797691 
L 593.977946 308.807381 
L 594.691965 309.797691 
L 596.120005 309.797691 
L 596.834024 308.807381 
L 597.548044 309.797691 
L 598.976083 309.797691 
L 599.690103 310.788 
L 599.690103 310.788 
" style="fill:none;stroke:#0000ff;stroke-linecap:square;stroke-width:1.5;"/>
   </g>
   <g id="line2d_206">
    <defs>
     <path d="M 0 3 
C 0.795609 3 1.55874 2.683901 2.12132 2.12132 
C 2.683901 1.55874 3 0.795609 3 0 
C 3 -0.795609 2.683901 -1.55874 2.12132 -2.12132 
C 1.55874 -2.683901 0.795609 -3 0 -3 
C -0.795609 -3 -1.55874 -2.683901 -2.12132 -2.12132 
C -2.683901 -1.55874 -3 -0.795609 -3 0 
C -3 0.795609 -2.683901 1.55874 -2.12132 2.12132 
C -1.55874 2.683901 -0.795609 3 0 3 
z
" id="m2f84609b9a" style="stroke:#1f77b4;"/>
    </defs>
    <g clip-path="url(#pa67ba2ebea)">
     <use style="fill:#1f77b4;stroke:#1f77b4;" x="86.31" xlink:href="#m2f84609b9a" y="308.807381"/>
     <use style="fill:#1f77b4;stroke:#1f77b4;" x="100.590392" xlink:href="#m2f84609b9a" y="242.456653"/>
     <use style="fill:#1f77b4;stroke:#1f77b4;" x="114.870785" xlink:href="#m2f84609b9a" y="193.931494"/>
     <use style="fill:#1f77b4;stroke:#1f77b4;" x="129.151177" xlink:href="#m2f84609b9a" y="159.270666"/>
     <use style="fill:#1f77b4;stroke:#1f77b4;" x="143.431569" xlink:href="#m2f84609b9a" y="134.512931"/>
     <use style="fill:#1f77b4;stroke:#1f77b4;" x="157.711961" xlink:href="#m2f84609b9a" y="114.706744"/>
     <use style="fill:#1f77b4;stroke:#1f77b4;" x="171.992354" xlink:href="#m2f84609b9a" y="101.832722"/>
     <use style="fill:#1f77b4;stroke:#1f77b4;" x="186.272746" xlink:href="#m2f84609b9a" y="91.929628"/>
     <use style="fill:#1f77b4;stroke:#1f77b4;" x="200.553138" xlink:href="#m2f84609b9a" y="84.007153"/>
     <use style="fill:#1f77b4;stroke:#1f77b4;" x="214.833531" xlink:href="#m2f84609b9a" y="79.055606"/>
     <use style="fill:#1f77b4;stroke:#1f77b4;" x="229.113923" xlink:href="#m2f84609b9a" y="76.084678"/>
     <use style="fill:#1f77b4;stroke:#1f77b4;" x="243.394315" xlink:href="#m2f84609b9a" y="73.11375"/>
     <use style="fill:#1f77b4;stroke:#1f77b4;" x="257.674707" xlink:href="#m2f84609b9a" y="71.133131"/>
     <use style="fill:#1f77b4;stroke:#1f77b4;" x="271.9551" xlink:href="#m2f84609b9a" y="68.162203"/>
     <use style="fill:#1f77b4;stroke:#1f77b4;" x="286.235492" xlink:href="#m2f84609b9a" y="67.171894"/>
     <use style="fill:#1f77b4;stroke:#1f77b4;" x="300.515884" xlink:href="#m2f84609b9a" y="66.181584"/>
     <use style="fill:#1f77b4;stroke:#1f77b4;" x="314.796277" xlink:href="#m2f84609b9a" y="67.171894"/>
     <use style="fill:#1f77b4;stroke:#1f77b4;" x="329.076669" xlink:href="#m2f84609b9a" y="90.939319"/>
     <use style="fill:#1f77b4;stroke:#1f77b4;" x="343.357061" xlink:href="#m2f84609b9a" y="149.367572"/>
     <use style="fill:#1f77b4;stroke:#1f77b4;" x="357.637453" xlink:href="#m2f84609b9a" y="191.950875"/>
     <use style="fill:#1f77b4;stroke:#1f77b4;" x="371.917846" xlink:href="#m2f84609b9a" y="221.660156"/>
     <use style="fill:#1f77b4;stroke:#1f77b4;" x="386.198238" xlink:href="#m2f84609b9a" y="245.427581"/>
     <use style="fill:#1f77b4;stroke:#1f77b4;" x="400.47863" xlink:href="#m2f84609b9a" y="262.262841"/>
     <use style="fill:#1f77b4;stroke:#1f77b4;" x="414.759023" xlink:href="#m2f84609b9a" y="274.146553"/>
     <use style="fill:#1f77b4;stroke:#1f77b4;" x="429.039415" xlink:href="#m2f84609b9a" y="283.059338"/>
     <use style="fill:#1f77b4;stroke:#1f77b4;" x="443.319807" xlink:href="#m2f84609b9a" y="290.981812"/>
     <use style="fill:#1f77b4;stroke:#1f77b4;" x="457.600199" xlink:href="#m2f84609b9a" y="294.94305"/>
     <use style="fill:#1f77b4;stroke:#1f77b4;" x="471.880592" xlink:href="#m2f84609b9a" y="299.894597"/>
     <use style="fill:#1f77b4;stroke:#1f77b4;" x="486.160984" xlink:href="#m2f84609b9a" y="302.865525"/>
     <use style="fill:#1f77b4;stroke:#1f77b4;" x="500.441376" xlink:href="#m2f84609b9a" y="304.846144"/>
     <use style="fill:#1f77b4;stroke:#1f77b4;" x="514.721769" xlink:href="#m2f84609b9a" y="305.836453"/>
     <use style="fill:#1f77b4;stroke:#1f77b4;" x="529.002161" xlink:href="#m2f84609b9a" y="306.826763"/>
     <use style="fill:#1f77b4;stroke:#1f77b4;" x="543.282553" xlink:href="#m2f84609b9a" y="308.807381"/>
     <use style="fill:#1f77b4;stroke:#1f77b4;" x="557.562945" xlink:href="#m2f84609b9a" y="307.817072"/>
     <use style="fill:#1f77b4;stroke:#1f77b4;" x="571.843338" xlink:href="#m2f84609b9a" y="308.807381"/>
     <use style="fill:#1f77b4;stroke:#1f77b4;" x="586.12373" xlink:href="#m2f84609b9a" y="309.797691"/>
    </g>
   </g>
   <g id="patch_3">
    <path d="M 86.31 310.788 
L 86.31 41.904 
" style="fill:none;stroke:#000000;stroke-linecap:square;stroke-linejoin:miter;stroke-width:0.8;"/>
   </g>
   <g id="patch_4">
    <path d="M 621.432 310.788 
L 621.432 41.904 
" style="fill:none;stroke:#000000;stroke-linecap:square;stroke-linejoin:miter;stroke-width:0.8;"/>
   </g>
   <g id="patch_5">
    <path d="M 86.31 310.788 
L 621.432 310.788 
" style="fill:none;stroke:#000000;stroke-linecap:square;stroke-linejoin:miter;stroke-width:0.8;"/>
   </g>
   <g id="patch_6">
    <path d="M 86.31 41.904 
L 621.432 41.904 
" style="fill:none;stroke:#000000;stroke-linecap:square;stroke-linejoin:miter;stroke-width:0.8;"/>
   </g>
   <g id="text_25">
    <!-- Process of charging and discharging of capacitor in RC-circuit -->
    <g transform="translate(169.917563 35.904)scale(0.12 -0.12)">
     <defs>
      <path d="M 1259 4147 
L 1259 2394 
L 2053 2394 
Q 2494 2394 2734 2622 
Q 2975 2850 2975 3272 
Q 2975 3691 2734 3919 
Q 2494 4147 2053 4147 
L 1259 4147 
z
M 628 4666 
L 2053 4666 
Q 2838 4666 3239 4311 
Q 3641 3956 3641 3272 
Q 3641 2581 3239 2228 
Q 2838 1875 2053 1875 
L 1259 1875 
L 1259 0 
L 628 0 
L 628 4666 
z
" id="DejaVuSans-50" transform="scale(0.015625)"/>
      <path d="M 2631 2963 
Q 2534 3019 2420 3045 
Q 2306 3072 2169 3072 
Q 1681 3072 1420 2755 
Q 1159 2438 1159 1844 
L 1159 0 
L 581 0 
L 581 3500 
L 1159 3500 
L 1159 2956 
Q 1341 3275 1631 3429 
Q 1922 3584 2338 3584 
Q 2397 3584 2469 3576 
Q 2541 3569 2628 3553 
L 2631 2963 
z
" id="DejaVuSans-72" transform="scale(0.015625)"/>
      <path d="M 2375 4863 
L 2375 4384 
L 1825 4384 
Q 1516 4384 1395 4259 
Q 1275 4134 1275 3809 
L 1275 3500 
L 2222 3500 
L 2222 3053 
L 1275 3053 
L 1275 0 
L 697 0 
L 697 3053 
L 147 3053 
L 147 3500 
L 697 3500 
L 697 3744 
Q 697 4328 969 4595 
Q 1241 4863 1831 4863 
L 2375 4863 
z
" id="DejaVuSans-66" transform="scale(0.015625)"/>
      <path d="M 3513 2113 
L 3513 0 
L 2938 0 
L 2938 2094 
Q 2938 2591 2744 2837 
Q 2550 3084 2163 3084 
Q 1697 3084 1428 2787 
Q 1159 2491 1159 1978 
L 1159 0 
L 581 0 
L 581 4863 
L 1159 4863 
L 1159 2956 
Q 1366 3272 1645 3428 
Q 1925 3584 2291 3584 
Q 2894 3584 3203 3211 
Q 3513 2838 3513 2113 
z
" id="DejaVuSans-68" transform="scale(0.015625)"/>
      <path d="M 3513 2113 
L 3513 0 
L 2938 0 
L 2938 2094 
Q 2938 2591 2744 2837 
Q 2550 3084 2163 3084 
Q 1697 3084 1428 2787 
Q 1159 2491 1159 1978 
L 1159 0 
L 581 0 
L 581 3500 
L 1159 3500 
L 1159 2956 
Q 1366 3272 1645 3428 
Q 1925 3584 2291 3584 
Q 2894 3584 3203 3211 
Q 3513 2838 3513 2113 
z
" id="DejaVuSans-6e" transform="scale(0.015625)"/>
      <path d="M 2906 2969 
L 2906 4863 
L 3481 4863 
L 3481 0 
L 2906 0 
L 2906 525 
Q 2725 213 2448 61 
Q 2172 -91 1784 -91 
Q 1150 -91 751 415 
Q 353 922 353 1747 
Q 353 2572 751 3078 
Q 1150 3584 1784 3584 
Q 2172 3584 2448 3432 
Q 2725 3281 2906 2969 
z
M 947 1747 
Q 947 1113 1208 752 
Q 1469 391 1925 391 
Q 2381 391 2643 752 
Q 2906 1113 2906 1747 
Q 2906 2381 2643 2742 
Q 2381 3103 1925 3103 
Q 1469 3103 1208 2742 
Q 947 2381 947 1747 
z
" id="DejaVuSans-64" transform="scale(0.015625)"/>
      <path d="M 1159 525 
L 1159 -1331 
L 581 -1331 
L 581 3500 
L 1159 3500 
L 1159 2969 
Q 1341 3281 1617 3432 
Q 1894 3584 2278 3584 
Q 2916 3584 3314 3078 
Q 3713 2572 3713 1747 
Q 3713 922 3314 415 
Q 2916 -91 2278 -91 
Q 1894 -91 1617 61 
Q 1341 213 1159 525 
z
M 3116 1747 
Q 3116 2381 2855 2742 
Q 2594 3103 2138 3103 
Q 1681 3103 1420 2742 
Q 1159 2381 1159 1747 
Q 1159 1113 1420 752 
Q 1681 391 2138 391 
Q 2594 391 2855 752 
Q 3116 1113 3116 1747 
z
" id="DejaVuSans-70" transform="scale(0.015625)"/>
      <path d="M 2841 2188 
Q 3044 2119 3236 1894 
Q 3428 1669 3622 1275 
L 4263 0 
L 3584 0 
L 2988 1197 
Q 2756 1666 2539 1819 
Q 2322 1972 1947 1972 
L 1259 1972 
L 1259 0 
L 628 0 
L 628 4666 
L 2053 4666 
Q 2853 4666 3247 4331 
Q 3641 3997 3641 3322 
Q 3641 2881 3436 2590 
Q 3231 2300 2841 2188 
z
M 1259 4147 
L 1259 2491 
L 2053 2491 
Q 2509 2491 2742 2702 
Q 2975 2913 2975 3322 
Q 2975 3731 2742 3939 
Q 2509 4147 2053 4147 
L 1259 4147 
z
" id="DejaVuSans-52" transform="scale(0.015625)"/>
      <path d="M 4122 4306 
L 4122 3641 
Q 3803 3938 3442 4084 
Q 3081 4231 2675 4231 
Q 1875 4231 1450 3742 
Q 1025 3253 1025 2328 
Q 1025 1406 1450 917 
Q 1875 428 2675 428 
Q 3081 428 3442 575 
Q 3803 722 4122 1019 
L 4122 359 
Q 3791 134 3420 21 
Q 3050 -91 2638 -91 
Q 1578 -91 968 557 
Q 359 1206 359 2328 
Q 359 3453 968 4101 
Q 1578 4750 2638 4750 
Q 3056 4750 3426 4639 
Q 3797 4528 4122 4306 
z
" id="DejaVuSans-43" transform="scale(0.015625)"/>
      <path d="M 313 2009 
L 1997 2009 
L 1997 1497 
L 313 1497 
L 313 2009 
z
" id="DejaVuSans-2d" transform="scale(0.015625)"/>
      <path d="M 544 1381 
L 544 3500 
L 1119 3500 
L 1119 1403 
Q 1119 906 1312 657 
Q 1506 409 1894 409 
Q 2359 409 2629 706 
Q 2900 1003 2900 1516 
L 2900 3500 
L 3475 3500 
L 3475 0 
L 2900 0 
L 2900 538 
Q 2691 219 2414 64 
Q 2138 -91 1772 -91 
Q 1169 -91 856 284 
Q 544 659 544 1381 
z
M 1991 3584 
L 1991 3584 
z
" id="DejaVuSans-75" transform="scale(0.015625)"/>
     </defs>
     <use xlink:href="#DejaVuSans-50"/>
     <use x="58.552734" xlink:href="#DejaVuSans-72"/>
     <use x="97.416016" xlink:href="#DejaVuSans-6f"/>
     <use x="158.597656" xlink:href="#DejaVuSans-63"/>
     <use x="213.578125" xlink:href="#DejaVuSans-65"/>
     <use x="275.101562" xlink:href="#DejaVuSans-73"/>
     <use x="327.201172" xlink:href="#DejaVuSans-73"/>
     <use x="379.300781" xlink:href="#DejaVuSans-20"/>
     <use x="411.087891" xlink:href="#DejaVuSans-6f"/>
     <use x="472.269531" xlink:href="#DejaVuSans-66"/>
     <use x="507.474609" xlink:href="#DejaVuSans-20"/>
     <use x="539.261719" xlink:href="#DejaVuSans-63"/>
     <use x="594.242188" xlink:href="#DejaVuSans-68"/>
     <use x="657.621094" xlink:href="#DejaVuSans-61"/>
     <use x="718.900391" xlink:href="#DejaVuSans-72"/>
     <use x="758.263672" xlink:href="#DejaVuSans-67"/>
     <use x="821.740234" xlink:href="#DejaVuSans-69"/>
     <use x="849.523438" xlink:href="#DejaVuSans-6e"/>
     <use x="912.902344" xlink:href="#DejaVuSans-67"/>
     <use x="976.378906" xlink:href="#DejaVuSans-20"/>
     <use x="1008.166016" xlink:href="#DejaVuSans-61"/>
     <use x="1069.445312" xlink:href="#DejaVuSans-6e"/>
     <use x="1132.824219" xlink:href="#DejaVuSans-64"/>
     <use x="1196.300781" xlink:href="#DejaVuSans-20"/>
     <use x="1228.087891" xlink:href="#DejaVuSans-64"/>
     <use x="1291.564453" xlink:href="#DejaVuSans-69"/>
     <use x="1319.347656" xlink:href="#DejaVuSans-73"/>
     <use x="1371.447266" xlink:href="#DejaVuSans-63"/>
     <use x="1426.427734" xlink:href="#DejaVuSans-68"/>
     <use x="1489.806641" xlink:href="#DejaVuSans-61"/>
     <use x="1551.085938" xlink:href="#DejaVuSans-72"/>
     <use x="1590.449219" xlink:href="#DejaVuSans-67"/>
     <use x="1653.925781" xlink:href="#DejaVuSans-69"/>
     <use x="1681.708984" xlink:href="#DejaVuSans-6e"/>
     <use x="1745.087891" xlink:href="#DejaVuSans-67"/>
     <use x="1808.564453" xlink:href="#DejaVuSans-20"/>
     <use x="1840.351562" xlink:href="#DejaVuSans-6f"/>
     <use x="1901.533203" xlink:href="#DejaVuSans-66"/>
     <use x="1936.738281" xlink:href="#DejaVuSans-20"/>
     <use x="1968.525391" xlink:href="#DejaVuSans-63"/>
     <use x="2023.505859" xlink:href="#DejaVuSans-61"/>
     <use x="2084.785156" xlink:href="#DejaVuSans-70"/>
     <use x="2148.261719" xlink:href="#DejaVuSans-61"/>
     <use x="2209.541016" xlink:href="#DejaVuSans-63"/>
     <use x="2264.521484" xlink:href="#DejaVuSans-69"/>
     <use x="2292.304688" xlink:href="#DejaVuSans-74"/>
     <use x="2331.513672" xlink:href="#DejaVuSans-6f"/>
     <use x="2392.695312" xlink:href="#DejaVuSans-72"/>
     <use x="2433.808594" xlink:href="#DejaVuSans-20"/>
     <use x="2465.595703" xlink:href="#DejaVuSans-69"/>
     <use x="2493.378906" xlink:href="#DejaVuSans-6e"/>
     <use x="2556.757812" xlink:href="#DejaVuSans-20"/>
     <use x="2588.544922" xlink:href="#DejaVuSans-52"/>
     <use x="2653.027344" xlink:href="#DejaVuSans-43"/>
     <use x="2722.851562" xlink:href="#DejaVuSans-2d"/>
     <use x="2758.935547" xlink:href="#DejaVuSans-63"/>
     <use x="2813.916016" xlink:href="#DejaVuSans-69"/>
     <use x="2841.699219" xlink:href="#DejaVuSans-72"/>
     <use x="2880.5625" xlink:href="#DejaVuSans-63"/>
     <use x="2935.542969" xlink:href="#DejaVuSans-75"/>
     <use x="2998.921875" xlink:href="#DejaVuSans-69"/>
     <use x="3026.705078" xlink:href="#DejaVuSans-74"/>
    </g>
   </g>
   <g id="legend_1">
    <g id="patch_7">
     <path d="M 435.685125 98.175562 
L 614.432 98.175562 
Q 616.432 98.175562 616.432 96.175562 
L 616.432 48.904 
Q 616.432 46.904 614.432 46.904 
L 435.685125 46.904 
Q 433.685125 46.904 433.685125 48.904 
L 433.685125 96.175562 
Q 433.685125 98.175562 435.685125 98.175562 
z
" style="fill:#ffffff;opacity:0.8;stroke:#cccccc;stroke-linejoin:miter;"/>
    </g>
    <g id="line2d_207">
     <path d="M 437.685125 72.839 
L 457.685125 72.839 
" style="fill:none;stroke:#0000ff;stroke-linecap:square;stroke-width:1.5;"/>
    </g>
    <g id="line2d_208"/>
    <g id="text_26">
     <!-- $U_{C}(t)$ -->
     <g transform="translate(465.685125 58.502437)scale(0.1 -0.1)">
      <defs>
       <path d="M 991 4666 
L 1625 4666 
L 1075 1831 
Q 1041 1641 1027 1517 
Q 1013 1394 1013 1300 
Q 1013 869 1253 645 
Q 1494 422 1959 422 
Q 2563 422 2898 753 
Q 3234 1084 3378 1831 
L 3928 4666 
L 4563 4666 
L 4000 1753 
Q 3816 809 3300 359 
Q 2784 -91 1888 -91 
Q 1188 -91 780 261 
Q 372 613 372 1216 
Q 372 1325 387 1461 
Q 403 1597 434 1753 
L 991 4666 
z
" id="DejaVuSans-Oblique-55" transform="scale(0.015625)"/>
       <path d="M 4447 4306 
L 4319 3641 
Q 4019 3944 3683 4091 
Q 3347 4238 2956 4238 
Q 2422 4238 2017 3981 
Q 1613 3725 1319 3200 
Q 1131 2863 1032 2486 
Q 934 2109 934 1728 
Q 934 1091 1264 756 
Q 1594 422 2222 422 
Q 2656 422 3056 561 
Q 3456 700 3834 978 
L 3688 231 
Q 3316 72 2936 -9 
Q 2556 -91 2175 -91 
Q 1278 -91 773 396 
Q 269 884 269 1753 
Q 269 2309 461 2846 
Q 653 3384 1013 3828 
Q 1394 4300 1883 4525 
Q 2372 4750 3022 4750 
Q 3422 4750 3780 4639 
Q 4138 4528 4447 4306 
z
" id="DejaVuSans-Oblique-43" transform="scale(0.015625)"/>
       <path d="M 1984 4856 
Q 1566 4138 1362 3434 
Q 1159 2731 1159 2009 
Q 1159 1288 1364 580 
Q 1569 -128 1984 -844 
L 1484 -844 
Q 1016 -109 783 600 
Q 550 1309 550 2009 
Q 550 2706 781 3412 
Q 1013 4119 1484 4856 
L 1984 4856 
z
" id="DejaVuSans-28" transform="scale(0.015625)"/>
       <path d="M 2706 3500 
L 2619 3053 
L 1472 3053 
L 1100 1153 
Q 1081 1047 1072 975 
Q 1063 903 1063 863 
Q 1063 663 1183 572 
Q 1303 481 1569 481 
L 2150 481 
L 2053 0 
L 1503 0 
Q 991 0 739 200 
Q 488 400 488 806 
Q 488 878 497 964 
Q 506 1050 525 1153 
L 897 3053 
L 409 3053 
L 500 3500 
L 978 3500 
L 1172 4494 
L 1747 4494 
L 1556 3500 
L 2706 3500 
z
" id="DejaVuSans-Oblique-74" transform="scale(0.015625)"/>
       <path d="M 513 4856 
L 1013 4856 
Q 1481 4119 1714 3412 
Q 1947 2706 1947 2009 
Q 1947 1309 1714 600 
Q 1481 -109 1013 -844 
L 513 -844 
Q 928 -128 1133 580 
Q 1338 1288 1338 2009 
Q 1338 2731 1133 3434 
Q 928 4138 513 4856 
z
" id="DejaVuSans-29" transform="scale(0.015625)"/>
      </defs>
      <use transform="translate(0 0.125)" xlink:href="#DejaVuSans-Oblique-55"/>
      <use transform="translate(73.193359 -16.28125)scale(0.7)" xlink:href="#DejaVuSans-Oblique-43"/>
      <use transform="translate(124.804688 0.125)" xlink:href="#DejaVuSans-28"/>
      <use transform="translate(163.818359 0.125)" xlink:href="#DejaVuSans-Oblique-74"/>
      <use transform="translate(203.027344 0.125)" xlink:href="#DejaVuSans-29"/>
     </g>
     <!--  -->
     <g transform="translate(465.685125 69.70025)scale(0.1 -0.1)"/>
     <!-- Charging time: 57.762 sec -->
     <g transform="translate(465.685125 80.898062)scale(0.1 -0.1)">
      <defs>
       <path d="M 750 794 
L 1409 794 
L 1409 0 
L 750 0 
L 750 794 
z
M 750 3309 
L 1409 3309 
L 1409 2516 
L 750 2516 
L 750 3309 
z
" id="DejaVuSans-3a" transform="scale(0.015625)"/>
      </defs>
      <use xlink:href="#DejaVuSans-43"/>
      <use x="69.824219" xlink:href="#DejaVuSans-68"/>
      <use x="133.203125" xlink:href="#DejaVuSans-61"/>
      <use x="194.482422" xlink:href="#DejaVuSans-72"/>
      <use x="233.845703" xlink:href="#DejaVuSans-67"/>
      <use x="297.322266" xlink:href="#DejaVuSans-69"/>
      <use x="325.105469" xlink:href="#DejaVuSans-6e"/>
      <use x="388.484375" xlink:href="#DejaVuSans-67"/>
      <use x="451.960938" xlink:href="#DejaVuSans-20"/>
      <use x="483.748047" xlink:href="#DejaVuSans-74"/>
      <use x="522.957031" xlink:href="#DejaVuSans-69"/>
      <use x="550.740234" xlink:href="#DejaVuSans-6d"/>
      <use x="648.152344" xlink:href="#DejaVuSans-65"/>
      <use x="709.675781" xlink:href="#DejaVuSans-3a"/>
      <use x="743.367188" xlink:href="#DejaVuSans-20"/>
      <use x="775.154297" xlink:href="#DejaVuSans-35"/>
      <use x="838.777344" xlink:href="#DejaVuSans-37"/>
      <use x="902.400391" xlink:href="#DejaVuSans-2e"/>
      <use x="934.1875" xlink:href="#DejaVuSans-37"/>
      <use x="997.810547" xlink:href="#DejaVuSans-36"/>
      <use x="1061.433594" xlink:href="#DejaVuSans-32"/>
      <use x="1125.056641" xlink:href="#DejaVuSans-20"/>
      <use x="1156.84375" xlink:href="#DejaVuSans-73"/>
      <use x="1208.943359" xlink:href="#DejaVuSans-65"/>
      <use x="1270.466797" xlink:href="#DejaVuSans-63"/>
     </g>
     <!-- Discharging time: 66.956 sec -->
     <g transform="translate(465.685125 92.095875)scale(0.1 -0.1)">
      <defs>
       <path d="M 1259 4147 
L 1259 519 
L 2022 519 
Q 2988 519 3436 956 
Q 3884 1394 3884 2338 
Q 3884 3275 3436 3711 
Q 2988 4147 2022 4147 
L 1259 4147 
z
M 628 4666 
L 1925 4666 
Q 3281 4666 3915 4102 
Q 4550 3538 4550 2338 
Q 4550 1131 3912 565 
Q 3275 0 1925 0 
L 628 0 
L 628 4666 
z
" id="DejaVuSans-44" transform="scale(0.015625)"/>
      </defs>
      <use xlink:href="#DejaVuSans-44"/>
      <use x="77.001953" xlink:href="#DejaVuSans-69"/>
      <use x="104.785156" xlink:href="#DejaVuSans-73"/>
      <use x="156.884766" xlink:href="#DejaVuSans-63"/>
      <use x="211.865234" xlink:href="#DejaVuSans-68"/>
      <use x="275.244141" xlink:href="#DejaVuSans-61"/>
      <use x="336.523438" xlink:href="#DejaVuSans-72"/>
      <use x="375.886719" xlink:href="#DejaVuSans-67"/>
      <use x="439.363281" xlink:href="#DejaVuSans-69"/>
      <use x="467.146484" xlink:href="#DejaVuSans-6e"/>
      <use x="530.525391" xlink:href="#DejaVuSans-67"/>
      <use x="594.001953" xlink:href="#DejaVuSans-20"/>
      <use x="625.789062" xlink:href="#DejaVuSans-74"/>
      <use x="664.998047" xlink:href="#DejaVuSans-69"/>
      <use x="692.78125" xlink:href="#DejaVuSans-6d"/>
      <use x="790.193359" xlink:href="#DejaVuSans-65"/>
      <use x="851.716797" xlink:href="#DejaVuSans-3a"/>
      <use x="885.408203" xlink:href="#DejaVuSans-20"/>
      <use x="917.195312" xlink:href="#DejaVuSans-36"/>
      <use x="980.818359" xlink:href="#DejaVuSans-36"/>
      <use x="1044.441406" xlink:href="#DejaVuSans-2e"/>
      <use x="1076.228516" xlink:href="#DejaVuSans-39"/>
      <use x="1139.851562" xlink:href="#DejaVuSans-35"/>
      <use x="1203.474609" xlink:href="#DejaVuSans-36"/>
      <use x="1267.097656" xlink:href="#DejaVuSans-20"/>
      <use x="1298.884766" xlink:href="#DejaVuSans-73"/>
      <use x="1350.984375" xlink:href="#DejaVuSans-65"/>
      <use x="1412.507812" xlink:href="#DejaVuSans-63"/>
     </g>
    </g>
   </g>
  </g>
 </g>
 <defs>
  <clipPath id="pa67ba2ebea">
   <rect height="268.884" width="535.122" x="86.31" y="41.904"/>
  </clipPath>
 </defs>
</svg>
